<svg width="519" height="472" viewBox="0 0 519 472" fill="none" xmlns="http://www.w3.org/2000/svg">
<path d="M75.9816 432.215C177.284 485.143 341.552 485.143 442.855 432.215C544.158 379.286 544.17 293.478 442.855 240.549C341.54 187.62 177.284 187.62 75.9816 240.549C-25.3212 293.478 -25.3332 379.286 75.9816 432.215Z" fill="#F5F5F5"/>
<path d="M338.589 418.83C369.138 418.83 393.903 407.028 393.903 392.468C393.903 377.909 369.138 366.106 338.589 366.106C308.039 366.106 283.274 377.909 283.274 392.468C283.274 407.028 308.039 418.83 338.589 418.83Z" fill="#EBEBEB"/>
<path d="M436.578 358.708C460.147 358.708 479.254 349.603 479.254 338.37C479.254 327.138 460.147 318.033 436.578 318.033C413.009 318.033 393.903 327.138 393.903 338.37C393.903 349.603 413.009 358.708 436.578 358.708Z" fill="#EBEBEB"/>
<path d="M132.416 332.671C130.006 319.948 121.187 301.815 110.428 291.706C100.078 281.995 84.7165 278.61 78.5959 283.092C72.4754 287.574 76.4875 297.261 88.3672 309.068C101.777 322.382 127.524 359.322 132.416 380.25V332.671Z" fill="#0099FF"/>
<g opacity="0.2">
<path opacity="0.2" d="M132.416 332.671C130.006 319.948 121.187 301.815 110.428 291.706C100.078 281.995 84.7165 278.61 78.5959 283.092C72.4754 287.574 76.4875 297.261 88.3672 309.068C101.777 322.382 127.524 359.322 132.416 380.25V332.671Z" fill="black"/>
</g>
<path d="M132.416 363.287C132.265 363.284 132.12 363.227 132.009 363.124C131.898 363.022 131.829 362.883 131.814 362.732C128.778 330.684 106.368 294.659 84.8252 287.153C84.6748 287.098 84.5516 286.987 84.4819 286.843C84.4121 286.699 84.4013 286.534 84.4517 286.382C84.5063 286.231 84.6174 286.108 84.7614 286.039C84.9054 285.969 85.0709 285.958 85.2228 286.008C107.56 293.78 129.91 329.587 133.043 362.624C133.056 362.783 133.007 362.942 132.906 363.065C132.805 363.189 132.659 363.268 132.501 363.287H132.416Z" fill="white"/>
<path d="M132.416 395.636C132.416 395.636 128.247 398.961 114.344 397.66C100.44 396.359 93.271 386.419 93.271 382.153C93.271 377.888 106.054 377.153 108.825 366.575C106.007 369.596 102.257 371.586 98.1747 372.226C90.9457 373.587 85.1383 371.274 83.4877 358.105C87.0507 358.626 90.6855 358.325 94.1144 357.225C99.8374 355.382 101.199 352.237 99.7048 351.563C98.2108 350.888 90.2348 351.563 85.1263 349.623C80.0178 347.683 83.9215 321.08 87.2709 319.189C90.6204 317.297 106.464 321.755 109.548 324.14C112.295 326.261 116.151 329.936 114.368 337.707C116.48 335.732 118.126 333.312 119.187 330.622C120.681 327.008 121.765 327.851 124.006 329.237C125.352 329.996 126.52 331.033 127.432 332.28C128.345 333.527 128.98 334.954 129.296 336.466C129.838 339.84 128.958 351.478 124.211 355.261C124.211 355.261 128.766 355.84 132.488 348.153C132.488 348.153 139.718 351.069 141.356 355.792C142.995 360.515 144.778 383.635 132.416 395.636Z" fill="#0099FF"/>
<path d="M133.645 398.262C133.497 398.261 133.356 398.206 133.245 398.109C133.134 398.012 133.063 397.878 133.042 397.732C129.862 371.695 110.066 337.49 90.6561 324.646C90.5219 324.557 90.4287 324.418 90.3971 324.26C90.3654 324.102 90.3979 323.937 90.4874 323.803C90.5769 323.669 90.716 323.576 90.8742 323.544C91.0323 323.512 91.1966 323.545 91.3308 323.634C110.982 336.707 131.09 371.262 134.235 397.587C134.256 397.745 134.213 397.905 134.115 398.032C134.018 398.158 133.875 398.241 133.717 398.262H133.645Z" fill="white"/>
<path d="M134.861 401.901C134.142 401.403 133.55 400.744 133.132 399.976C132.713 399.208 132.48 398.353 132.452 397.479V109.631C132.501 108.725 132.763 107.844 133.218 107.059C133.672 106.274 134.305 105.607 135.066 105.113L315.792 0.749714C316.547 0.275909 317.417 0.0169866 318.309 0.000807633C319.2 -0.0153714 320.079 0.211802 320.851 0.657888C321.623 1.10397 322.259 1.7521 322.69 2.53253C323.121 3.31295 323.331 4.19616 323.298 5.08713L139.922 401.804C139.145 402.217 138.282 402.441 137.403 402.458C136.524 402.475 135.653 402.284 134.861 401.901Z" fill="#E0E0E0"/>
<path d="M137.308 115.101L210.718 67.0643L205.827 64.2329L135.031 105.113C134.27 105.607 133.636 106.274 133.182 107.059C132.728 107.844 132.465 108.725 132.416 109.631V112.27L137.308 115.101Z" fill="#37474F"/>
<path opacity="0.2" d="M137.308 115.101L210.718 67.0643L205.827 64.2329L135.031 105.113C134.27 105.607 133.636 106.274 133.182 107.059C132.728 107.844 132.465 108.725 132.416 109.631V112.27L137.308 115.101Z" fill="#37474F"/>
<path d="M161.826 123.572L133.175 107.089C132.708 107.866 132.447 108.75 132.416 109.656V397.456C132.385 398.345 132.597 399.227 133.029 400.006C133.461 400.784 134.097 401.431 134.868 401.875C135.64 402.32 136.518 402.546 137.408 402.529C138.299 402.513 139.168 402.254 139.922 401.781L161.826 389.19V123.572Z" fill="#263238"/>
<path opacity="0.4" d="M161.826 123.572L133.175 107.089C132.708 107.866 132.447 108.75 132.416 109.656V397.456C132.385 398.345 132.597 399.227 133.029 400.006C133.461 400.784 134.097 401.431 134.868 401.875C135.64 402.32 136.518 402.546 137.408 402.529C138.299 402.513 139.168 402.254 139.922 401.781L161.826 389.19V123.572Z" fill="#263238"/>
<path d="M139.923 401.805L320.648 297.442C321.409 296.948 322.043 296.281 322.497 295.496C322.951 294.711 323.214 293.829 323.263 292.923V5.08756C323.263 3.42488 322.058 2.75017 320.648 3.58151L139.923 107.945C139.162 108.439 138.528 109.105 138.074 109.89C137.62 110.676 137.357 111.557 137.308 112.463V400.299C137.308 401.961 138.477 402.636 139.923 401.805Z" fill="#455A64"/>
<path opacity="0.1" d="M139.923 401.805L320.648 297.442C321.409 296.948 322.043 296.281 322.497 295.496C322.951 294.711 323.214 293.829 323.263 292.923V5.08756C323.263 3.42488 322.058 2.75017 320.648 3.58151L139.923 107.945C139.162 108.439 138.528 109.105 138.074 109.89C137.62 110.676 137.357 111.557 137.308 112.463V400.299C137.308 401.961 138.477 402.636 139.923 401.805Z" fill="#455A64"/>
<path d="M152.32 178.945L195.694 153.885C198.574 152.222 200.911 153.403 200.911 156.523C200.782 158.276 200.243 159.973 199.337 161.478C198.43 162.983 197.183 164.253 195.694 165.186L152.32 190.247C149.428 191.91 147.103 190.729 147.103 187.608C147.229 185.856 147.767 184.157 148.674 182.652C149.58 181.146 150.83 179.877 152.32 178.945Z" fill="#0099FF"/>
<path d="M152.32 196.729L181.031 180.15C183.911 178.488 186.248 179.669 186.248 182.789C186.119 184.541 185.58 186.238 184.674 187.743C183.768 189.248 182.52 190.519 181.031 191.452L152.32 208.03C149.428 209.693 147.103 208.512 147.103 205.392C147.229 203.639 147.767 201.941 148.674 200.435C149.58 198.93 150.83 197.66 152.32 196.729Z" fill="#0099FF"/>
<path d="M149.187 227.163L154.802 223.922C156.007 223.259 156.886 223.801 156.886 225.127V231.609C156.847 232.333 156.638 233.037 156.276 233.665C155.914 234.293 155.409 234.827 154.802 235.223L149.187 238.416C147.983 239.091 147.103 238.549 147.103 237.211V230.729C147.15 230.014 147.363 229.32 147.725 228.701C148.087 228.082 148.587 227.555 149.187 227.163Z" fill="#0099FF"/>
<path d="M149.187 249.777L154.802 246.536C156.007 245.862 156.886 246.404 156.886 247.741V254.223C156.844 254.946 156.634 255.65 156.272 256.277C155.91 256.905 155.407 257.439 154.802 257.838L149.187 261.079C147.983 261.741 147.103 261.199 147.103 259.874V253.392C147.14 252.668 147.349 251.962 147.711 251.334C148.073 250.706 148.579 250.172 149.187 249.777Z" fill="#0099FF"/>
<path d="M164.393 243.826L198.321 224.223C199.767 223.392 200.936 223.982 200.936 225.549C200.87 226.424 200.599 227.272 200.145 228.024C199.691 228.775 199.066 229.409 198.321 229.874L164.393 249.477C162.947 250.308 161.778 249.718 161.778 248.151C161.844 247.276 162.115 246.428 162.569 245.676C163.023 244.925 163.648 244.291 164.393 243.826Z" fill="#0099FF"/>
<path d="M149.187 272.381L154.802 269.14C156.007 268.465 156.886 269.007 156.886 270.345V276.827C156.845 277.55 156.635 278.254 156.273 278.882C155.912 279.509 155.408 280.043 154.802 280.441L149.187 283.682C147.983 284.345 147.103 283.803 147.103 282.477V275.995C147.14 275.271 147.349 274.566 147.711 273.938C148.073 273.309 148.579 272.776 149.187 272.381Z" fill="#E0E0E0"/>
<path d="M164.393 266.429L198.321 246.85C199.767 246.019 200.936 246.609 200.936 248.176C200.872 249.052 200.602 249.9 200.148 250.652C199.693 251.404 199.067 252.037 198.321 252.501L164.393 272.104C162.947 272.935 161.778 272.345 161.778 270.778C161.84 269.898 162.109 269.046 162.564 268.29C163.018 267.534 163.645 266.896 164.393 266.429Z" fill="#F0F0F0"/>
<path d="M149.187 295.044L154.802 291.802C156.007 291.128 156.886 291.67 156.886 293.007V299.489C156.845 300.213 156.635 300.917 156.273 301.544C155.912 302.172 155.408 302.706 154.802 303.104L149.187 306.345C147.983 307.008 147.103 306.465 147.103 305.14V298.658C147.14 297.934 147.349 297.229 147.711 296.6C148.073 295.972 148.579 295.438 149.187 295.044Z" fill="#E0E0E0"/>
<path d="M164.393 289.091L198.321 269.5C199.767 268.657 200.936 269.259 200.936 270.814C200.872 271.691 200.602 272.542 200.148 273.295C199.693 274.049 199.067 274.685 198.321 275.151L164.393 294.742C162.947 295.573 161.778 294.983 161.778 293.416C161.844 292.541 162.115 291.693 162.569 290.941C163.023 290.19 163.648 289.556 164.393 289.091Z" fill="#F0F0F0"/>
<path d="M149.187 317.647L154.802 314.406C156.007 313.731 156.886 314.273 156.886 315.61V322.092C156.845 322.816 156.635 323.52 156.273 324.147C155.912 324.775 155.408 325.309 154.802 325.707L149.187 328.948C147.983 329.611 147.103 329.068 147.103 327.743V321.261C147.14 320.537 147.349 319.832 147.711 319.203C148.073 318.575 148.579 318.042 149.187 317.647Z" fill="#E0E0E0"/>
<path d="M164.393 311.694L198.321 292.103C199.767 291.26 200.936 291.862 200.936 293.417C200.872 294.294 200.602 295.145 200.148 295.898C199.693 296.652 199.067 297.288 198.321 297.754L164.393 317.345C162.947 318.176 161.778 317.586 161.778 316.02C161.844 315.144 162.115 314.296 162.569 313.544C163.023 312.793 163.648 312.159 164.393 311.694Z" fill="#F0F0F0"/>
<path d="M149.705 339.888L173.802 325.948C175.248 325.117 176.417 325.707 176.417 327.273C176.351 328.149 176.08 328.997 175.626 329.748C175.172 330.5 174.547 331.134 173.802 331.599L149.705 345.539C148.272 346.37 147.103 345.78 147.103 344.225C147.166 343.349 147.435 342.5 147.887 341.746C148.339 340.993 148.962 340.356 149.705 339.888Z" fill="#0099FF"/>
<path d="M149.705 351.19L198.321 323.129C199.767 322.298 200.935 322.888 200.935 324.442C200.872 325.32 200.602 326.17 200.147 326.924C199.693 327.678 199.067 328.313 198.321 328.78L149.705 356.84C148.272 357.672 147.103 357.081 147.103 355.527C147.166 354.651 147.435 353.801 147.887 353.048C148.339 352.294 148.962 351.658 149.705 351.19Z" fill="#BA68C8"/>
<path opacity="0.8" d="M149.705 351.19L198.321 323.129C199.767 322.298 200.935 322.888 200.935 324.442C200.872 325.32 200.602 326.17 200.147 326.924C199.693 327.678 199.067 328.313 198.321 328.78L149.705 356.84C148.272 357.672 147.103 357.081 147.103 355.527C147.166 354.651 147.435 353.801 147.887 353.048C148.339 352.294 148.962 351.658 149.705 351.19Z" fill="white"/>
<path d="M149.705 351.189L183.646 331.598C185.08 330.767 186.248 331.357 186.248 332.924C186.183 333.798 185.914 334.645 185.462 335.396C185.01 336.147 184.388 336.782 183.646 337.249L149.705 356.84C148.272 357.671 147.103 357.081 147.103 355.526C147.166 354.65 147.435 353.801 147.887 353.047C148.339 352.294 148.962 351.657 149.705 351.189Z" fill="#0099FF"/>
<path d="M149.705 362.514L173.802 348.574C175.248 347.743 176.417 348.333 176.417 349.9C176.351 350.775 176.08 351.623 175.626 352.375C175.172 353.126 174.547 353.76 173.802 354.225L149.705 368.165C148.272 368.996 147.103 368.406 147.103 366.852C147.166 365.975 147.435 365.126 147.887 364.373C148.339 363.619 148.962 362.983 149.705 362.514Z" fill="#BA68C8"/>
<path d="M164.393 221.211L198.321 201.62C199.767 200.789 200.936 201.379 200.936 202.946C200.87 203.821 200.599 204.669 200.145 205.421C199.691 206.172 199.066 206.806 198.321 207.271L164.393 226.862C162.947 227.693 161.778 227.103 161.778 225.548C161.842 224.671 162.112 223.82 162.566 223.067C163.021 222.313 163.646 221.677 164.393 221.211Z" fill="#0099FF"/>
<path d="M149.705 362.514L173.802 348.574C175.248 347.743 176.417 348.333 176.417 349.9C176.351 350.775 176.08 351.623 175.626 352.375C175.172 353.126 174.547 353.76 173.802 354.225L149.705 368.165C148.272 368.996 147.103 368.406 147.103 366.852C147.166 365.975 147.435 365.126 147.887 364.373C148.339 363.619 148.962 362.983 149.705 362.514Z" fill="#0099FF"/>
<path d="M149.705 373.78L198.321 345.72C199.767 344.888 200.935 345.479 200.935 347.033C200.872 347.911 200.602 348.761 200.147 349.515C199.693 350.268 199.067 350.904 198.321 351.37L149.705 379.383C148.272 380.226 147.103 379.624 147.103 378.07C147.174 377.202 147.446 376.362 147.897 375.617C148.349 374.873 148.968 374.244 149.705 373.78Z" fill="#BA68C8"/>
<path opacity="0.8" d="M149.705 373.78L198.321 345.72C199.767 344.888 200.935 345.479 200.935 347.033C200.872 347.911 200.602 348.761 200.147 349.515C199.693 350.268 199.067 350.904 198.321 351.37L149.705 379.383C148.272 380.226 147.103 379.624 147.103 378.07C147.174 377.202 147.446 376.362 147.897 375.617C148.349 374.873 148.968 374.244 149.705 373.78Z" fill="white"/>
<path d="M149.705 373.779L193.429 348.477C194.875 347.646 196.044 348.236 196.044 349.802C195.978 350.678 195.707 351.526 195.253 352.278C194.799 353.029 194.174 353.663 193.429 354.128L149.705 379.429C148.272 380.273 147.103 379.67 147.103 378.116C147.166 377.24 147.435 376.391 147.887 375.637C148.339 374.884 148.962 374.247 149.705 373.779Z" fill="#0099FF"/>
<path d="M320.672 3.58129L210.718 67.0642V360.924L320.672 297.454C321.433 296.96 322.066 296.293 322.52 295.508C322.975 294.723 323.237 293.841 323.286 292.935V5.08734C323.274 3.47286 322.069 2.74995 320.672 3.58129Z" fill="#EBEBEB"/>
<path opacity="0.6" d="M320.672 3.58129L210.718 67.0642V360.924L320.672 297.454C321.433 296.96 322.066 296.293 322.52 295.508C322.975 294.723 323.237 293.841 323.286 292.935V5.08734C323.274 3.47286 322.069 2.74995 320.672 3.58129Z" fill="#FAFAFA"/>
<path d="M210.719 78.3652V100.968L200.936 112.269H210.719V134.872L313.492 75.5338V19.0269L210.719 78.3652Z" fill="#0099FF"/>
<g opacity="0.6">
<path opacity="0.6" d="M224.165 79.1483L265.804 55.0515C267.816 53.8466 269.419 54.8346 269.419 57.1599C269.352 58.4234 268.991 59.6537 268.363 60.7522C267.735 61.8506 266.859 62.7867 265.804 63.4854L224.165 87.5219C222.141 88.7267 220.55 87.7388 220.55 85.4134C220.623 84.1597 220.988 82.9404 221.615 81.8526C222.243 80.7649 223.116 79.8388 224.165 79.1483Z" fill="white"/>
</g>
<path d="M221.815 97.4499L302.407 50.919C303.13 50.5094 303.708 50.7985 303.708 51.5817C303.677 52.02 303.543 52.4448 303.317 52.8216C303.091 53.1984 302.779 53.5166 302.407 53.7504L221.815 100.221C221.092 100.631 220.514 100.342 220.514 99.5584C220.554 99.1305 220.693 98.7178 220.918 98.3521C221.144 97.9864 221.451 97.6777 221.815 97.4499Z" fill="#BA68C8"/>
<path d="M221.815 97.4499L302.407 50.919C303.13 50.5094 303.708 50.7985 303.708 51.5817C303.677 52.02 303.543 52.4448 303.317 52.8216C303.091 53.1984 302.779 53.5166 302.407 53.7504L221.815 100.221C221.092 100.631 220.514 100.342 220.514 99.5584C220.554 99.1305 220.693 98.7178 220.918 98.3521C221.144 97.9864 221.451 97.6777 221.815 97.4499Z" fill="#B7DDF7"/>
<path d="M221.815 105.884L302.407 59.3531C303.13 58.9314 303.708 59.2326 303.708 60.0157C303.677 60.4524 303.543 60.8756 303.317 61.2504C303.091 61.6253 302.779 61.9413 302.407 62.1724L221.815 108.703C221.092 109.125 220.514 108.824 220.514 108.041C220.545 107.604 220.679 107.181 220.906 106.806C221.132 106.431 221.444 106.115 221.815 105.884Z" fill="#B7DDF7"/>
<path opacity="0.6" d="M221.815 114.318L302.407 67.7872C303.13 67.3775 303.708 67.6667 303.708 68.4499C303.677 68.8882 303.543 69.313 303.317 69.6898C303.091 70.0666 302.779 70.3848 302.407 70.6186L221.815 117.149C221.092 117.559 220.514 117.27 220.514 116.487C220.545 116.048 220.679 115.624 220.905 115.247C221.132 114.87 221.443 114.552 221.815 114.318Z" fill="white"/>
<path d="M224.851 138.053L230.502 134.8C231.707 134.125 232.587 134.668 232.587 136.005V142.487C232.546 143.211 232.337 143.915 231.975 144.542C231.613 145.17 231.108 145.704 230.502 146.101L224.888 149.342C223.683 150.005 222.803 149.463 222.803 148.138V141.668C222.836 140.947 223.039 140.243 223.395 139.615C223.751 138.987 224.25 138.452 224.851 138.053Z" fill="#0099FF"/>
<path d="M240.056 132.101L273.985 112.499C275.43 111.667 276.599 112.258 276.599 113.824C276.534 114.7 276.263 115.548 275.809 116.299C275.354 117.05 274.73 117.684 273.985 118.149L240.056 137.752C238.611 138.583 237.442 137.993 237.442 136.427C237.507 135.551 237.778 134.703 238.232 133.952C238.687 133.2 239.312 132.566 240.056 132.101Z" fill="#0099FF"/>
<path d="M224.068 158.295L309.611 108.896C310.334 108.475 310.913 108.776 310.913 109.547C310.882 109.986 310.749 110.411 310.523 110.788C310.296 111.165 309.984 111.483 309.611 111.716L224.068 161.114C223.345 161.536 222.767 161.235 222.767 160.451C222.798 160.015 222.932 159.592 223.158 159.217C223.384 158.842 223.696 158.526 224.068 158.295Z" fill="#BA68C8"/>
<path d="M224.068 166.764L309.611 117.366C310.334 116.956 310.913 117.245 310.913 118.028C310.881 118.467 310.747 118.892 310.521 119.268C310.295 119.645 309.983 119.963 309.611 120.197L224.068 169.596C223.345 170.005 222.767 169.716 222.767 168.933C222.798 168.495 222.932 168.07 223.158 167.693C223.384 167.316 223.696 166.998 224.068 166.764Z" fill="#BA68C8"/>
<path d="M224.068 175.247L309.611 125.849C310.334 125.427 310.913 125.728 310.913 126.499C310.882 126.938 310.749 127.363 310.523 127.74C310.296 128.117 309.984 128.435 309.611 128.668L224.068 178.066C223.345 178.488 222.767 178.187 222.767 177.416C222.797 176.977 222.93 176.552 223.157 176.175C223.383 175.798 223.695 175.48 224.068 175.247Z" fill="#BA68C8"/>
<path d="M224.068 183.741L309.611 134.343C310.334 133.933 310.913 134.222 310.913 135.006C310.881 135.444 310.747 135.869 310.521 136.245C310.295 136.622 309.983 136.94 309.611 137.174L224.068 186.573C223.345 186.982 222.767 186.693 222.767 185.91C222.798 185.472 222.932 185.047 223.158 184.67C223.384 184.293 223.696 183.975 224.068 183.741Z" fill="#BA68C8"/>
<path d="M224.068 158.295L309.611 108.896C310.334 108.475 310.913 108.776 310.913 109.547C310.882 109.986 310.749 110.411 310.523 110.788C310.296 111.165 309.984 111.483 309.611 111.716L224.068 161.114C223.345 161.536 222.767 161.235 222.767 160.451C222.798 160.015 222.932 159.592 223.158 159.217C223.384 158.842 223.696 158.526 224.068 158.295Z" fill="#E0E0E0"/>
<path d="M224.068 166.764L309.611 117.366C310.334 116.956 310.913 117.245 310.913 118.028C310.881 118.467 310.747 118.892 310.521 119.268C310.295 119.645 309.983 119.963 309.611 120.197L224.068 169.596C223.345 170.005 222.767 169.716 222.767 168.933C222.798 168.495 222.932 168.07 223.158 167.693C223.384 167.316 223.696 166.998 224.068 166.764Z" fill="#E0E0E0"/>
<path d="M224.068 175.247L309.611 125.849C310.334 125.427 310.913 125.728 310.913 126.499C310.882 126.938 310.749 127.363 310.523 127.74C310.296 128.117 309.984 128.435 309.611 128.668L224.068 178.066C223.345 178.488 222.767 178.187 222.767 177.416C222.797 176.977 222.93 176.552 223.157 176.175C223.383 175.798 223.695 175.48 224.068 175.247Z" fill="#E0E0E0"/>
<path d="M224.068 183.741L309.611 134.343C310.334 133.933 310.913 134.222 310.913 135.006C310.881 135.444 310.747 135.869 310.521 136.245C310.295 136.622 309.983 136.94 309.611 137.174L224.068 186.573C223.345 186.982 222.767 186.693 222.767 185.91C222.798 185.472 222.932 185.047 223.158 184.67C223.384 184.293 223.696 183.975 224.068 183.741Z" fill="#E0E0E0"/>
<path opacity="0.8" d="M224.068 158.295L309.611 108.896C310.334 108.475 310.913 108.776 310.913 109.547C310.882 109.986 310.749 110.411 310.523 110.788C310.296 111.165 309.984 111.483 309.611 111.716L224.068 161.114C223.345 161.536 222.767 161.235 222.767 160.451C222.798 160.015 222.932 159.592 223.158 159.217C223.384 158.842 223.696 158.526 224.068 158.295Z" fill="#E0E0E0"/>
<path opacity="0.8" d="M224.068 166.764L309.611 117.366C310.334 116.956 310.913 117.245 310.913 118.028C310.881 118.467 310.747 118.892 310.521 119.268C310.295 119.645 309.983 119.963 309.611 120.197L224.068 169.596C223.345 170.005 222.767 169.716 222.767 168.933C222.798 168.495 222.932 168.07 223.158 167.693C223.384 167.316 223.696 166.998 224.068 166.764Z" fill="#E0E0E0"/>
<path opacity="0.8" d="M224.068 175.247L309.611 125.849C310.334 125.427 310.913 125.728 310.913 126.499C310.882 126.938 310.749 127.363 310.523 127.74C310.296 128.117 309.984 128.435 309.611 128.668L224.068 178.066C223.345 178.488 222.767 178.187 222.767 177.416C222.797 176.977 222.93 176.552 223.157 176.175C223.383 175.798 223.695 175.48 224.068 175.247Z" fill="#E0E0E0"/>
<path opacity="0.8" d="M224.068 183.741L309.611 134.343C310.334 133.933 310.913 134.222 310.913 135.006C310.881 135.444 310.747 135.869 310.521 136.245C310.295 136.622 309.983 136.94 309.611 137.174L224.068 186.573C223.345 186.982 222.767 186.693 222.767 185.91C222.798 185.472 222.932 185.047 223.158 184.67C223.384 184.293 223.696 183.975 224.068 183.741Z" fill="#E0E0E0"/>
<path d="M224.068 219.741L309.611 170.343C310.334 169.921 310.913 170.222 310.913 170.993C310.882 171.432 310.749 171.857 310.523 172.234C310.296 172.611 309.984 172.929 309.611 173.162L224.068 222.56C223.345 222.982 222.767 222.681 222.767 221.898C222.798 221.461 222.932 221.038 223.158 220.663C223.384 220.288 223.696 219.972 224.068 219.741Z" fill="#E0E0E0"/>
<path d="M224.068 228.211L309.611 178.813C310.334 178.403 310.913 178.693 310.913 179.476C310.881 179.914 310.747 180.339 310.521 180.716C310.295 181.092 309.983 181.411 309.611 181.644L224.068 231.043C223.345 231.452 222.767 231.163 222.767 230.38C222.798 229.942 222.932 229.517 223.158 229.14C223.384 228.763 223.696 228.445 224.068 228.211Z" fill="#E0E0E0"/>
<path d="M224.068 236.693L309.611 187.295C310.334 186.873 310.913 187.174 310.913 187.945C310.882 188.384 310.749 188.809 310.523 189.186C310.296 189.563 309.984 189.881 309.611 190.114L224.068 239.513C223.345 239.934 222.767 239.633 222.767 238.862C222.797 238.423 222.93 237.998 223.157 237.621C223.383 237.244 223.695 236.926 224.068 236.693Z" fill="#E0E0E0"/>
<path d="M224.068 245.187L309.611 195.789C310.334 195.379 310.913 195.668 310.913 196.451C310.881 196.89 310.747 197.314 310.521 197.691C310.295 198.068 309.983 198.386 309.611 198.62L224.068 248.018C223.345 248.428 222.767 248.139 222.767 247.356C222.798 246.917 222.932 246.493 223.158 246.116C223.384 245.739 223.696 245.421 224.068 245.187Z" fill="#E0E0E0"/>
<path opacity="0.8" d="M224.068 219.741L309.611 170.343C310.334 169.921 310.913 170.222 310.913 170.993C310.882 171.432 310.749 171.857 310.523 172.234C310.296 172.611 309.984 172.929 309.611 173.162L224.068 222.56C223.345 222.982 222.767 222.681 222.767 221.898C222.798 221.461 222.932 221.038 223.158 220.663C223.384 220.288 223.696 219.972 224.068 219.741Z" fill="#E0E0E0"/>
<path opacity="0.8" d="M224.068 228.211L309.611 178.813C310.334 178.403 310.913 178.693 310.913 179.476C310.881 179.914 310.747 180.339 310.521 180.716C310.295 181.092 309.983 181.411 309.611 181.644L224.068 231.043C223.345 231.452 222.767 231.163 222.767 230.38C222.798 229.942 222.932 229.517 223.158 229.14C223.384 228.763 223.696 228.445 224.068 228.211Z" fill="#E0E0E0"/>
<path opacity="0.8" d="M224.068 236.693L309.611 187.295C310.334 186.873 310.913 187.174 310.913 187.945C310.882 188.384 310.749 188.809 310.523 189.186C310.296 189.563 309.984 189.881 309.611 190.114L224.068 239.513C223.345 239.934 222.767 239.633 222.767 238.862C222.797 238.423 222.93 237.998 223.157 237.621C223.383 237.244 223.695 236.926 224.068 236.693Z" fill="#E0E0E0"/>
<path opacity="0.8" d="M224.068 245.187L309.611 195.789C310.334 195.379 310.913 195.668 310.913 196.451C310.881 196.89 310.747 197.314 310.521 197.691C310.295 198.068 309.983 198.386 309.611 198.62L224.068 248.018C223.345 248.428 222.767 248.139 222.767 247.356C222.798 246.917 222.932 246.493 223.158 246.116C223.384 245.739 223.696 245.421 224.068 245.187Z" fill="#E0E0E0"/>
<path d="M224.068 282.393L309.611 232.995C310.334 232.573 310.913 232.874 310.913 233.645C310.882 234.084 310.749 234.509 310.523 234.886C310.296 235.263 309.984 235.581 309.611 235.814L224.068 285.212C223.345 285.634 222.767 285.333 222.767 284.55C222.798 284.113 222.932 283.69 223.158 283.315C223.384 282.94 223.696 282.624 224.068 282.393Z" fill="#E0E0E0"/>
<path d="M224.068 290.862L309.611 241.464C310.334 241.054 310.913 241.343 310.913 242.127C310.881 242.565 310.747 242.99 310.521 243.367C310.295 243.743 309.983 244.062 309.611 244.295L224.068 293.694C223.345 294.103 222.767 293.814 222.767 293.031C222.798 292.593 222.932 292.168 223.158 291.791C223.384 291.414 223.696 291.096 224.068 290.862Z" fill="#E0E0E0"/>
<path d="M224.068 299.345L309.611 249.946C310.334 249.525 310.913 249.826 310.913 250.597C310.882 251.035 310.749 251.461 310.523 251.838C310.296 252.214 309.984 252.532 309.611 252.766L224.068 302.164C223.345 302.586 222.767 302.284 222.767 301.513C222.797 301.075 222.93 300.65 223.157 300.273C223.383 299.896 223.695 299.578 224.068 299.345Z" fill="#E0E0E0"/>
<path d="M224.068 307.839L309.611 258.441C310.334 258.031 310.913 258.32 310.913 259.103C310.881 259.542 310.747 259.966 310.521 260.343C310.295 260.72 309.983 261.038 309.611 261.272L224.068 310.67C223.345 311.08 222.767 310.791 222.767 310.008C222.798 309.569 222.932 309.144 223.158 308.768C223.384 308.391 223.696 308.073 224.068 307.839Z" fill="#E0E0E0"/>
<path opacity="0.8" d="M224.068 282.393L309.611 232.995C310.334 232.573 310.913 232.874 310.913 233.645C310.882 234.084 310.749 234.509 310.523 234.886C310.296 235.263 309.984 235.581 309.611 235.814L224.068 285.212C223.345 285.634 222.767 285.333 222.767 284.55C222.798 284.113 222.932 283.69 223.158 283.315C223.384 282.94 223.696 282.624 224.068 282.393Z" fill="#E0E0E0"/>
<path opacity="0.8" d="M224.068 290.862L309.611 241.464C310.334 241.054 310.913 241.343 310.913 242.127C310.881 242.565 310.747 242.99 310.521 243.367C310.295 243.743 309.983 244.062 309.611 244.295L224.068 293.694C223.345 294.103 222.767 293.814 222.767 293.031C222.798 292.593 222.932 292.168 223.158 291.791C223.384 291.414 223.696 291.096 224.068 290.862Z" fill="#E0E0E0"/>
<path opacity="0.8" d="M224.068 299.345L309.611 249.946C310.334 249.525 310.913 249.826 310.913 250.597C310.882 251.035 310.749 251.461 310.523 251.838C310.296 252.214 309.984 252.532 309.611 252.766L224.068 302.164C223.345 302.586 222.767 302.284 222.767 301.513C222.797 301.075 222.93 300.65 223.157 300.273C223.383 299.896 223.695 299.578 224.068 299.345Z" fill="#E0E0E0"/>
<path opacity="0.8" d="M224.068 307.839L309.611 258.441C310.334 258.031 310.913 258.32 310.913 259.103C310.881 259.542 310.747 259.966 310.521 260.343C310.295 260.72 309.983 261.038 309.611 261.272L224.068 310.67C223.345 311.08 222.767 310.791 222.767 310.008C222.798 309.569 222.932 309.144 223.158 308.768C223.384 308.391 223.696 308.073 224.068 307.839Z" fill="#E0E0E0"/>
<path d="M224.851 200.211L230.502 196.97C231.707 196.308 232.587 196.85 232.587 198.175V204.681C232.549 205.406 232.341 206.111 231.979 206.739C231.616 207.367 231.11 207.901 230.502 208.296L224.888 211.537C223.683 212.199 222.803 211.669 222.803 210.332V203.85C222.834 203.125 223.035 202.417 223.391 201.785C223.747 201.153 224.247 200.613 224.851 200.211Z" fill="#0099FF"/>
<path d="M240.056 194.259L273.985 174.668C275.43 173.837 276.599 174.427 276.599 175.981C276.536 176.859 276.266 177.709 275.811 178.463C275.357 179.217 274.731 179.852 273.985 180.319L240.056 199.861C238.611 200.692 237.442 200.102 237.442 198.548C237.513 197.679 237.786 196.838 238.24 196.093C238.694 195.348 239.316 194.72 240.056 194.259Z" fill="#0099FF"/>
<path d="M224.851 262.38L230.502 259.139C231.707 258.464 232.587 259.006 232.587 260.344V266.826C232.548 267.55 232.34 268.255 231.977 268.883C231.615 269.511 231.11 270.045 230.502 270.44L224.888 273.681C223.683 274.344 222.803 273.802 222.803 272.476V265.994C222.836 265.273 223.039 264.57 223.395 263.942C223.751 263.314 224.25 262.779 224.851 262.38Z" fill="#0099FF"/>
<path d="M240.056 256.489L273.985 236.886C275.43 236.055 276.599 236.645 276.599 238.211C276.535 239.089 276.264 239.939 275.81 240.692C275.356 241.446 274.73 242.082 273.985 242.549L240.056 262.139C238.611 262.971 237.442 262.38 237.442 260.814C237.507 259.938 237.778 259.09 238.232 258.339C238.687 257.587 239.312 256.954 240.056 256.489Z" fill="#0099FF"/>
<path d="M232.84 317.104L238.454 313.863C239.659 313.2 240.551 313.742 240.551 315.068V321.55C240.511 322.275 240.301 322.98 239.936 323.609C239.572 324.237 239.064 324.77 238.454 325.164L232.84 328.405C231.695 329.08 230.755 328.538 230.755 327.2V320.718C230.797 319.995 231.008 319.292 231.369 318.664C231.731 318.037 232.235 317.502 232.84 317.104Z" fill="#0099FF"/>
<path d="M224.068 339.129L247.237 325.755C247.96 325.345 248.538 325.634 248.538 326.418C248.507 326.856 248.373 327.281 248.147 327.658C247.921 328.034 247.609 328.353 247.237 328.586L224.068 341.96C223.345 342.37 222.767 342.081 222.767 341.297C222.798 340.859 222.932 340.434 223.158 340.057C223.384 339.681 223.696 339.362 224.068 339.129Z" fill="#E0E0E0"/>
<path d="M264.009 299.103L269.623 295.862C270.768 295.2 271.707 295.742 271.707 297.067V303.549C271.668 304.273 271.459 304.978 271.097 305.606C270.735 306.234 270.23 306.767 269.623 307.164L264.009 310.405C262.804 311.067 261.912 310.537 261.912 309.2V302.718C261.953 301.993 262.163 301.288 262.528 300.66C262.892 300.032 263.399 299.499 264.009 299.103Z" fill="#0099FF"/>
<path d="M255.226 321.129L278.395 307.755C279.117 307.334 279.696 307.635 279.696 308.418C279.665 308.855 279.531 309.278 279.304 309.653C279.078 310.028 278.766 310.344 278.395 310.575L255.226 323.96C254.503 324.382 253.924 324.081 253.924 323.31C253.953 322.869 254.085 322.442 254.312 322.062C254.538 321.683 254.851 321.363 255.226 321.129Z" fill="#E0E0E0"/>
<path d="M295.166 281.104L300.78 277.863C301.925 277.188 302.865 277.73 302.865 279.068V285.55C302.824 286.273 302.614 286.977 302.252 287.605C301.89 288.232 301.386 288.767 300.78 289.164L295.166 292.405C293.961 293.068 293.082 292.526 293.082 291.201V284.719C293.119 283.994 293.327 283.289 293.689 282.661C294.052 282.033 294.558 281.499 295.166 281.104Z" fill="#0099FF"/>
<path d="M286.382 303.128L309.551 289.754C310.274 289.333 310.853 289.634 310.853 290.405C310.822 290.843 310.689 291.269 310.463 291.646C310.236 292.023 309.924 292.341 309.551 292.574L286.382 305.947C285.671 306.369 285.081 306.068 285.081 305.285C285.115 304.849 285.25 304.427 285.476 304.052C285.702 303.678 286.012 303.361 286.382 303.128Z" fill="#E0E0E0"/>
<path d="M171.573 102.101C158.055 109.715 147.103 128.692 147.103 144.475C147.103 160.258 158.055 166.74 171.573 158.933C185.092 151.126 196.044 132.161 196.044 116.547C196.044 100.932 185.08 94.4741 171.573 102.101Z" fill="#FAFAFA"/>
<path d="M183.429 150.74L163.838 155.993C163.501 156.103 163.142 156.127 162.792 156.063C162.443 155.999 162.116 155.849 161.84 155.627C161.563 155.404 161.347 155.116 161.21 154.789C161.073 154.461 161.02 154.105 161.055 153.752V120.402C161.124 117.642 162.046 114.97 163.694 112.755C165.343 110.539 167.636 108.888 170.26 108.028L176.959 106.233C182.055 104.872 186.188 108.197 186.188 113.655V147.017C186.166 147.846 185.89 148.648 185.396 149.314C184.902 149.98 184.216 150.478 183.429 150.74Z" fill="#37474F"/>
<path d="M184.369 159.367L182.309 150.27C182.309 150.27 182.309 137.993 180.562 136.86C178.815 135.728 178.309 135.511 178.309 135.511C180.55 134.74 185.273 134.162 186.742 138.475C188.152 142.547 190.261 152.584 191.261 157.523L184.369 159.367Z" fill="#F28F8F"/>
<path d="M184.2 159.416L177.212 135.62C180.308 134.415 184.284 133.415 186.212 136.608C187.947 139.475 190.718 154.5 191.26 157.524L184.2 159.416Z" fill="#0099FF"/>
<g opacity="0.4">
<path opacity="0.4" d="M184.2 159.416L177.212 135.62C180.308 134.415 184.284 133.415 186.212 136.608C187.947 139.475 190.718 154.5 191.26 157.524L184.2 159.416Z" fill="black"/>
</g>
<path d="M185.14 159.162L178.272 161.005C178.549 159.033 179.199 157.132 180.188 155.403C181.563 153.422 183.54 151.939 185.827 151.174C185.332 153.807 185.102 156.483 185.14 159.162Z" fill="#0099FF"/>
<path d="M185.14 159.162L178.272 161.005C178.549 159.033 179.199 157.132 180.188 155.403C181.563 153.422 183.54 151.939 185.827 151.174C185.332 153.807 185.102 156.483 185.14 159.162Z" fill="#0099FF"/>
<g opacity="0.7">
<path opacity="0.7" d="M185.14 159.162L178.272 161.005C178.549 159.033 179.199 157.132 180.188 155.403C181.563 153.422 183.54 151.939 185.827 151.174C185.332 153.807 185.102 156.483 185.14 159.162Z" fill="black"/>
</g>
<path d="M183.67 159.559L164.393 164.704L162.272 158.138C162.272 158.138 167.899 144.969 160.947 141.583C161.826 140.921 169.236 138.029 169.236 138.029L177.2 135.619C178.718 135.21 184.851 137.933 186.405 143.969C186.959 146.101 186.766 148.017 183.646 159.126C183.682 159.27 183.67 159.415 183.67 159.559Z" fill="#0099FF"/>
<path d="M182.08 110.33C183.405 110.812 185.044 113.945 184.887 121.499C184.755 127.909 182.827 129.933 181.863 130.704C180.42 131.427 178.827 131.802 177.212 131.8V135.62C177.212 135.62 179.719 138.029 179.562 139.861C179.405 141.692 175.947 142.993 173.61 141.909C171.903 140.946 170.426 139.622 169.285 138.029V129.234C169.109 129.437 168.894 129.603 168.653 129.722C168.413 129.841 168.151 129.911 167.883 129.927C167.615 129.944 167.346 129.908 167.092 129.82C166.839 129.732 166.605 129.594 166.405 129.415C166.029 129.157 165.708 128.827 165.462 128.443C165.215 128.059 165.049 127.63 164.971 127.181C164.893 126.731 164.907 126.271 165.01 125.827C165.114 125.383 165.305 124.964 165.574 124.595C166.779 123.017 168.887 122.788 169.706 124.366C170.726 121.891 172.552 119.832 174.887 118.523C178.694 116.21 180.767 114.149 182.08 110.33Z" fill="#FFA8A7"/>
<path d="M178.26 121.68C178.266 121.908 178.2 122.133 178.073 122.322C177.946 122.512 177.763 122.658 177.55 122.74C177.459 122.771 177.362 122.78 177.267 122.766C177.173 122.751 177.083 122.714 177.006 122.657C176.929 122.6 176.867 122.525 176.825 122.439C176.783 122.353 176.763 122.257 176.766 122.162C176.761 121.933 176.827 121.709 176.954 121.519C177.081 121.329 177.264 121.183 177.477 121.101C177.568 121.07 177.665 121.061 177.759 121.076C177.854 121.09 177.944 121.127 178.021 121.184C178.098 121.241 178.16 121.316 178.202 121.402C178.244 121.489 178.264 121.584 178.26 121.68Z" fill="#37474F"/>
<path d="M178.453 127.028L180.188 127.149C180.138 127.413 180 127.653 179.796 127.83C179.593 128.007 179.337 128.111 179.068 128.125C178.586 128.089 178.309 127.57 178.453 127.028Z" fill="#F28F8F"/>
<path d="M184.381 117.583L182.875 116.872C182.965 116.639 183.137 116.447 183.36 116.334C183.582 116.22 183.839 116.193 184.08 116.257C184.188 116.324 184.281 116.411 184.355 116.514C184.428 116.617 184.481 116.733 184.509 116.857C184.537 116.98 184.54 117.108 184.518 117.232C184.496 117.357 184.45 117.476 184.381 117.583Z" fill="#37474F"/>
<path d="M176.092 120.403L177.598 118.873C177.518 118.791 177.422 118.728 177.315 118.687C177.209 118.645 177.096 118.627 176.982 118.632C176.868 118.638 176.757 118.668 176.655 118.72C176.554 118.771 176.464 118.844 176.393 118.933C176.184 119.108 176.04 119.348 175.985 119.615C175.931 119.882 175.968 120.16 176.092 120.403Z" fill="#37474F"/>
<path d="M184.032 119.559C184.039 119.787 183.974 120.013 183.846 120.203C183.719 120.393 183.535 120.538 183.321 120.619C183.229 120.651 183.131 120.659 183.035 120.644C182.94 120.629 182.849 120.591 182.772 120.533C182.694 120.474 182.632 120.398 182.592 120.31C182.551 120.222 182.532 120.125 182.538 120.028C182.534 119.8 182.6 119.577 182.727 119.387C182.854 119.198 183.036 119.052 183.248 118.968C183.34 118.936 183.438 118.928 183.534 118.943C183.629 118.958 183.72 118.996 183.797 119.054C183.875 119.113 183.937 119.189 183.978 119.277C184.018 119.365 184.037 119.462 184.032 119.559Z" fill="#37474F"/>
<path d="M180.513 120.041L180.622 124.824L182.995 123.403L180.513 120.041Z" fill="#F28F8F"/>
<path d="M177.212 131.8C175.309 132.041 171.381 131.884 170.767 130.39C170.989 131.124 171.48 131.747 172.14 132.137C173.345 132.908 177.212 133.077 177.212 133.077V131.8Z" fill="#F28F8F"/>
<path d="M164.501 164.692L163.694 161.825L165.814 164.343L164.501 164.692Z" fill="#0099FF"/>
<path d="M162.923 165.114C162.057 160.992 160.885 156.941 159.417 152.993C157.392 147.439 159.657 142.644 161.019 141.584C162.38 140.523 169.308 138.029 169.308 138.029C171.814 145.162 172.501 154.716 172.561 162.536L162.923 165.114Z" fill="#0099FF"/>
<path opacity="0.4" d="M162.923 165.114C162.057 160.992 160.885 156.941 159.417 152.993C157.392 147.439 159.657 142.644 161.019 141.584C162.38 140.523 169.308 138.029 169.308 138.029C171.814 145.162 172.501 154.716 172.561 162.536L162.923 165.114Z" fill="black"/>
<path d="M159.501 166.03L152.622 167.874C152.429 167.744 152.248 167.599 152.08 167.44C152.08 167.44 155.333 154.885 156.369 150.717C157.405 146.548 158.2 143.68 160.995 141.584C166.02 144.849 163.694 153.922 163.694 153.922L159.501 166.03Z" fill="#0099FF"/>
<path opacity="0.4" d="M159.501 166.03L152.622 167.874C152.429 167.744 152.248 167.599 152.08 167.44C152.08 167.44 155.333 154.885 156.369 150.717C157.405 146.548 158.2 143.68 160.995 141.584C166.02 144.849 163.694 153.922 163.694 153.922L159.501 166.03Z" fill="black"/>
<path d="M59.3304 85.7992V61.9314C59.2581 57.3048 62.2702 52.6662 68.3787 49.148C80.4271 42.172 100.018 42.172 112.09 49.148C118.199 52.6662 121.211 57.3048 121.139 61.9314V85.7149C121.139 90.3174 118.175 98.5464 112.09 102.053C100.042 109.029 80.4512 109.029 68.3787 102.053C62.3545 98.5826 59.3424 90.4138 59.3304 85.8474V85.7992Z" fill="#EBEBEB"/>
<path d="M90.2347 32.3164L141.236 61.7627L90.2347 91.2089L39.2339 61.7627L90.2347 32.3164Z" fill="#F5F5F5"/>
<path d="M64.7163 76.4734L89.8372 62.1358C89.9408 62.0765 90.0551 62.0381 90.1736 62.023C90.292 62.0078 90.4123 62.0161 90.5276 62.0475C90.6428 62.0788 90.7507 62.1325 90.8452 62.2056C90.9397 62.2786 91.0188 62.3695 91.0782 62.4732C91.1375 62.5768 91.1759 62.6911 91.191 62.8096C91.2062 62.928 91.1978 63.0483 91.1665 63.1635C91.1352 63.2788 91.0815 63.3867 91.0084 63.4812C90.9354 63.5757 90.8445 63.6548 90.7408 63.7142L66.5115 77.5096L64.7163 76.4734Z" fill="#E0E0E0"/>
<path d="M141.236 61.7622V63.8707L90.2349 93.3049V91.2085L141.236 61.7622Z" fill="#E6E6E6"/>
<path d="M39.2339 61.7622V63.8707L90.2347 93.3049V91.2085L39.2339 61.7622Z" fill="#F0F0F0"/>
<path d="M63.4512 77.8473L65.0054 78.7389C65.2404 78.3551 65.5676 78.0362 65.9572 77.8112L66.4994 77.4979L64.7283 76.4858C64.2052 76.8373 63.7685 77.3028 63.4512 77.8473Z" fill="#E0E0E0"/>
<path d="M121.199 75.4375L90.2345 96.4619L59.3545 75.4857L90.2345 93.3053L121.199 75.4375Z" fill="#E0E0E0"/>
<path d="M61.4633 102.643C61.8955 102.866 62.3747 102.982 62.8609 102.982C63.3472 102.982 63.8264 102.866 64.2585 102.643L66.5598 117.498C66.5598 120.306 59.2705 120.306 59.2705 117.498L61.4633 102.643Z" fill="#F5F5F5"/>
<path d="M61.3305 111.125L60.8727 119.27C60.7224 119.224 60.5771 119.164 60.439 119.089L61.3305 111.125Z" fill="#EBEBEB"/>
<path d="M64.7769 119.33L63.813 106.077L65.2467 119.137C65.0941 119.211 64.9372 119.275 64.7769 119.33Z" fill="#EBEBEB"/>
<path d="M63.138 119.595H62.6802L62.9211 109.077L63.138 119.595Z" fill="#EBEBEB"/>
<path d="M62.8489 103.883C63.383 103.87 63.9002 103.693 64.3308 103.377C64.5139 103.242 64.6384 103.042 64.6787 102.818C64.7191 102.594 64.6722 102.363 64.5477 102.172C64.4162 101.985 64.2168 101.856 63.9918 101.813C63.7668 101.771 63.534 101.817 63.3429 101.944C63.2282 102.055 63.0748 102.117 62.9151 102.117C62.7555 102.117 62.6021 102.055 62.4874 101.944C62.3937 101.86 62.2837 101.797 62.1643 101.759C62.0449 101.72 61.9188 101.707 61.794 101.72C61.6692 101.732 61.5484 101.771 61.4394 101.833C61.3304 101.895 61.2355 101.979 61.1607 102.08C61.086 102.181 61.0331 102.296 61.0053 102.419C60.9775 102.541 60.9756 102.668 60.9995 102.791C61.0234 102.914 61.0727 103.031 61.1443 103.134C61.2159 103.237 61.3081 103.324 61.4151 103.389C61.8298 103.7 62.3311 103.872 62.8489 103.883Z" fill="#E0E0E0"/>
<path d="M62.9092 101.57C63.0273 101.572 63.1445 101.55 63.2541 101.506C63.3636 101.462 63.4633 101.396 63.5474 101.313C63.6315 101.23 63.6982 101.132 63.7438 101.023C63.7894 100.914 63.8128 100.797 63.8128 100.679V79.6181C63.814 79.1446 63.9392 78.6796 64.176 78.2695C64.4127 77.8594 64.7527 77.5185 65.1622 77.2807L90.7409 62.7022C90.9441 62.5858 91.0933 62.3943 91.1565 62.1688C91.2196 61.9434 91.1915 61.7022 91.0783 61.4973C91.0218 61.3955 90.9458 61.306 90.8544 61.2338C90.7631 61.1617 90.6584 61.1084 90.5463 61.077C90.4343 61.0456 90.3171 61.0368 90.2016 61.051C90.0861 61.0653 89.9746 61.1023 89.8735 61.1599L64.2345 75.7626C63.5511 76.1572 62.9832 76.7243 62.5878 77.4073C62.1924 78.0902 61.9833 78.8651 61.9814 79.6542V100.715C61.9861 100.832 62.0138 100.947 62.063 101.053C62.1121 101.16 62.1818 101.255 62.2679 101.335C62.3541 101.414 62.4551 101.476 62.5651 101.516C62.6752 101.557 62.7921 101.575 62.9092 101.57Z" fill="#FAFAFA"/>
<path d="M64.8849 100.678C64.8873 100.287 64.7735 99.9039 64.5578 99.5774C64.3421 99.2509 64.0344 98.9957 63.6735 98.8443C63.3127 98.6929 62.915 98.6521 62.531 98.7269C62.1469 98.8018 61.7937 98.989 61.5161 99.2649C61.2386 99.5408 61.0492 99.8928 60.972 100.276C60.8947 100.66 60.9332 101.058 61.0824 101.42C61.2315 101.781 61.4848 102.091 61.81 102.308C62.1352 102.526 62.5177 102.642 62.909 102.642C63.1679 102.644 63.4246 102.594 63.6643 102.496C63.9039 102.398 64.1218 102.254 64.3055 102.071C64.4891 101.889 64.6349 101.672 64.7343 101.433C64.8337 101.194 64.8849 100.937 64.8849 100.678Z" fill="#F5F5F5"/>
<path d="M60.957 100.787C61.0394 100.991 61.1646 101.174 61.3243 101.325C61.484 101.477 61.6744 101.591 61.8825 101.662C62.0905 101.733 62.3115 101.758 62.5302 101.736C62.7489 101.714 62.9602 101.645 63.1498 101.534C63.3918 101.388 63.592 101.182 63.731 100.936C63.87 100.69 63.943 100.413 63.943 100.13C63.943 99.8477 63.87 99.57 63.731 99.3241C63.592 99.0782 63.3918 98.8723 63.1498 98.7266C63.5184 98.7774 63.865 98.9319 64.1492 99.1721C64.4333 99.4123 64.6434 99.7283 64.755 100.083C64.8665 100.438 64.8749 100.818 64.7793 101.177C64.6836 101.537 64.4877 101.862 64.2145 102.114C63.9412 102.367 63.6019 102.536 63.2359 102.604C62.8699 102.671 62.4924 102.633 62.1473 102.494C61.8022 102.354 61.5037 102.12 61.2866 101.818C61.0695 101.516 60.9427 101.158 60.9209 100.787H60.957Z" fill="#EBEBEB"/>
<path d="M411.963 89.0528L402.649 83.6913L407.77 82.6069L412.866 86.1612L411.963 89.0528Z" fill="#E0E0E0"/>
<path d="M395.661 41.063C395.661 26.605 386.806 19.894 375.926 26.1712L359.854 35.4485C349.01 41.7257 340.13 58.6416 340.13 73.1479C340.13 73.7383 340.13 74.3527 340.13 74.8708C340.13 75.1961 340.13 75.4732 340.13 75.7865C340.13 76.0997 340.191 76.3528 340.215 76.6299C340.239 76.907 340.287 77.2684 340.335 77.5817C340.578 79.2938 341.006 80.9745 341.612 82.5938C341.865 83.1962 342.13 83.7987 342.42 84.3047C342.553 84.5841 342.706 84.8539 342.877 85.1119L343.034 85.365C343.302 85.7966 343.613 86.2002 343.962 86.5698C344.155 86.7867 344.335 87.0156 344.54 87.2204L345.167 87.8228C345.383 87.9915 345.588 88.1963 345.817 88.365C346.034 88.5393 346.263 88.6964 346.504 88.8349L347.215 89.2445C348.136 89.7415 349.134 90.0796 350.167 90.2446C350.246 90.2252 350.328 90.2252 350.408 90.2446C350.685 90.2446 350.938 90.3048 351.215 90.3048C351.508 90.3289 351.802 90.3289 352.094 90.3048C352.869 90.3132 353.642 90.2283 354.396 90.0518C354.847 89.9621 355.293 89.8495 355.733 89.7144C357.141 89.2831 358.492 88.6844 359.757 87.9313L375.83 78.654C376.931 78.0144 377.986 77.2977 378.986 76.5094C378.986 76.3166 378.986 76.1479 378.986 75.9672C378.986 75.7865 378.986 75.4009 378.986 75.1841C378.986 74.7021 378.986 74.2082 378.986 73.7142C378.95 61.3887 386.372 46.8463 395.661 41.063Z" fill="#E0E0E0"/>
<path d="M398.372 30.6412L389.035 25.2676C389.095 25.2676 389.987 31.7617 389.987 31.7617L396.914 32.581L398.372 30.6412Z" fill="#E0E0E0"/>
<path d="M355.227 93.7876L346.601 88.8959L351.793 86.667L355.227 93.7876Z" fill="#E0E0E0"/>
<path d="M359.854 88.0766C359.792 91.6471 358.645 95.1142 356.564 98.0165C356.179 98.5226 356.769 98.9684 357.203 98.7394C359.172 97.7176 360.917 96.3125 362.336 94.6068C365.061 91.3863 366.966 87.5544 367.89 83.438L359.854 88.0766Z" fill="#E0E0E0"/>
<path d="M356.661 98.7147L365.998 104.088C365.998 104.088 371.239 99.6665 371.239 90.7146L361.107 90.0278C361.107 90.0278 360.866 95.8593 356.661 98.7147Z" fill="#E0E0E0"/>
<path d="M381.529 72.3775C381.529 72.8273 381.529 73.261 381.529 73.6787C381.529 73.9197 381.529 74.1245 381.529 74.3534C381.529 74.5823 381.529 74.7751 381.601 74.992C381.673 75.2089 381.601 75.4739 381.685 75.7149C381.825 76.7822 382.075 77.832 382.432 78.8475C382.484 79.0325 382.548 79.2136 382.625 79.3896C382.713 79.6317 382.814 79.869 382.926 80.1005C383.02 80.3244 383.129 80.5417 383.252 80.7511C383.347 80.961 383.46 81.1625 383.589 81.3535L383.71 81.5463C383.922 81.8782 384.155 82.1961 384.408 82.4981C384.54 82.6738 384.685 82.8389 384.842 82.9921L385.3 83.4379C385.456 83.5844 385.621 83.7212 385.794 83.8475C385.959 83.9751 386.132 84.0918 386.312 84.197C386.493 84.3054 386.661 84.4138 386.854 84.5102L387.408 84.7753L387.987 84.9801C388.339 85.0868 388.697 85.1753 389.059 85.2452H389.24C389.44 85.2635 389.642 85.2635 389.842 85.2452C390.058 85.2696 390.277 85.2696 390.493 85.2452C391.011 85.245 391.528 85.1925 392.035 85.0885C392.442 85.0196 392.844 84.927 393.24 84.8114C394.297 84.4873 395.313 84.0383 396.264 83.4741L408.312 76.5101C409.387 75.8898 410.4 75.1676 411.337 74.3534C411.674 74.0643 412.011 73.751 412.349 73.4377C412.956 72.872 413.531 72.2726 414.071 71.6425L414.843 70.9437C415.047 70.7028 415.24 70.4497 415.445 70.1967C415.495 70.1092 415.556 70.0282 415.626 69.9558C416.428 68.895 417.168 67.7887 417.843 66.6425C418.023 66.3412 418.192 66.028 418.373 65.7147C418.553 65.4015 418.722 65.0882 418.891 64.7629C419.06 64.4376 419.216 64.1123 419.385 63.799L419.843 62.8111C419.999 62.4858 420.144 62.1364 420.288 61.8231C420.541 61.2448 420.77 60.6183 420.975 60.064C420.975 59.9556 421.06 59.8472 421.096 59.7387C421.228 59.4014 421.337 59.064 421.445 58.7267C421.662 58.076 421.855 57.4254 422.048 56.7507C422.471 55.1672 422.789 53.5572 422.999 51.9314C422.999 51.6543 423.06 51.3892 423.096 51.1121C423.132 50.835 423.096 50.6422 423.156 50.4012C423.216 50.1603 423.156 49.9193 423.156 49.6783C423.156 49.2285 423.156 48.7827 423.156 48.341C423.156 37.4974 416.517 32.425 408.348 37.136L396.3 44.112C388.167 48.7988 381.529 61.4857 381.529 72.3775Z" fill="#E0E0E0"/>
<path d="M427.505 41.7624L418.24 36.437L414.746 38.9069L425.553 45.4492L427.505 41.7624Z" fill="#E0E0E0"/>
<path d="M395.698 89.5584L386.384 84.1969L393.686 82.0161L395.698 89.5584Z" fill="#E0E0E0"/>
<path d="M406.565 77.6787C406.565 79.6065 408.975 82.233 411.734 82.727C412.108 82.7993 412.011 83.6186 411.565 83.9318C409.921 84.825 408.024 85.139 406.18 84.8234C404.982 84.7877 403.815 84.4342 402.799 83.799C401.783 83.1639 400.953 82.27 400.396 81.2089L406.565 77.6787Z" fill="#BA68C8"/>
<path d="M385.251 31.5337L369.167 40.823C358.323 47.1002 349.456 64.0162 349.456 78.5104C349.456 79.1128 349.456 79.7152 349.456 80.2454C349.456 80.5707 349.456 80.8478 349.456 81.161C349.456 81.4743 349.516 81.7153 349.552 81.9924C349.588 82.2695 349.624 82.655 349.672 82.9562C349.89 84.662 350.294 86.3387 350.877 87.9563C351.13 88.5708 351.395 89.1612 351.684 89.6792C351.817 89.9552 351.97 90.2209 352.142 90.4744C352.193 90.5624 352.249 90.6469 352.311 90.7274C352.573 91.1827 352.879 91.6106 353.227 92.0046C353.419 92.2214 353.612 92.4624 353.817 92.6552L354.432 93.2576C354.648 93.4263 354.865 93.6311 355.082 93.7998C355.3 93.9714 355.53 94.1283 355.769 94.2697L356.492 94.6793C357.409 95.1744 358.403 95.5124 359.432 95.6793C359.51 95.6527 359.594 95.6527 359.673 95.6793C359.95 95.6793 360.215 95.6793 360.48 95.6793C360.773 95.6972 361.066 95.6972 361.359 95.6793C362.134 95.6827 362.906 95.5978 363.661 95.4263C364.112 95.3366 364.558 95.224 364.998 95.089C366.403 94.654 367.753 94.0598 369.022 93.3179C368.963 96.8868 367.81 100.352 365.721 103.246C365.335 103.764 365.926 104.21 366.371 103.981C368.343 102.958 370.089 101.548 371.504 99.836C374.222 96.6153 376.127 92.7891 377.058 88.6792L375.854 89.3419L385.046 84.0406C385.936 83.5279 386.793 82.9606 387.613 82.3418C387.542 82.0359 387.49 81.7261 387.456 81.414C387.456 81.2092 387.384 80.908 387.36 80.5948C387.316 80.3275 387.288 80.058 387.275 79.7875V79.6429C387.263 79.4423 387.263 79.2411 387.275 79.0405C387.275 78.5827 387.275 78.1007 387.275 77.6188C387.275 65.4258 394.504 51.6786 403.806 46.293L404.83 45.6906C404.734 31.7506 395.974 25.3409 385.251 31.5337Z" fill="#F0F0F0"/>
<path d="M417.722 42.4734L405.674 49.4374C397.517 54.1604 390.866 66.8473 390.866 77.7391C390.866 78.1848 390.866 78.6186 390.866 79.0403C390.866 79.462 390.866 79.4861 390.866 79.715C390.866 79.9439 390.866 80.1367 390.926 80.3536C390.946 80.5921 390.978 80.8293 391.023 81.0644C391.155 82.1369 391.406 83.1915 391.77 84.209C391.816 84.3957 391.881 84.5773 391.963 84.7512C392.044 84.99 392.141 85.2234 392.252 85.45C392.348 85.6767 392.457 85.8979 392.577 86.1127C392.676 86.3229 392.793 86.5244 392.926 86.7151C392.955 86.7835 392.991 86.8482 393.035 86.9079C393.264 87.2452 393.493 87.5585 393.734 87.8597C393.873 88.0326 394.022 88.1976 394.18 88.3537L394.637 88.7995C394.794 88.946 394.958 89.0828 395.131 89.2091C395.29 89.3392 395.459 89.456 395.637 89.5585C395.818 89.667 395.987 89.7754 396.18 89.8718L396.734 90.1368L397.312 90.3417C397.665 90.4484 398.023 90.5369 398.384 90.6068H398.565C398.765 90.6251 398.967 90.6251 399.168 90.6068C399.387 90.6373 399.61 90.6373 399.83 90.6068C400.348 90.6097 400.864 90.5613 401.372 90.4622C401.779 90.3922 402.181 90.2997 402.577 90.185C403.637 89.8655 404.652 89.4163 405.601 88.8477L409.674 86.5103C410.239 87.5601 411.071 88.4418 412.087 89.0661C413.102 89.6903 414.265 90.0348 415.457 90.0646C417.303 90.3755 419.199 90.0573 420.843 89.1609C421.276 88.8838 421.385 88.0645 420.999 87.9561C418.24 87.4621 415.842 84.8356 415.842 82.9078L417.674 81.8476C418.747 81.2244 419.759 80.5024 420.698 79.6909C421.035 79.4017 421.373 79.0885 421.698 78.7752C422.309 78.2096 422.889 77.6103 423.433 76.98C423.65 76.727 423.867 76.486 424.084 76.1969C424.3 75.9077 424.481 75.7149 424.686 75.4619L424.867 75.221C425.669 74.1602 426.409 73.0539 427.084 71.9076L427.626 70.9799C427.807 70.6667 427.975 70.3534 428.144 70.0281C428.313 69.7028 428.457 69.3775 428.626 69.0642L429.096 68.0763C429.252 67.7389 429.385 67.4015 429.529 67.0883C429.782 66.51 430.023 65.8834 430.228 65.3292L430.337 65.0039C430.469 64.6666 430.59 64.3292 430.686 63.9919C430.915 63.3292 431.096 62.6906 431.301 62.0159C431.725 60.4324 432.043 58.8224 432.252 57.1966C432.252 56.9194 432.313 56.6544 432.337 56.3773C432.361 56.1002 432.337 55.8953 432.397 55.6664C432.457 55.4375 432.397 55.1845 432.397 54.9435C432.397 54.4977 432.397 54.0399 432.397 53.5941C432.53 42.7867 425.879 37.7625 417.722 42.4734Z" fill="#F0F0F0"/>
<path d="M320.925 201.849C316.371 200.428 311.696 204.114 308.636 211.56C305.576 219.006 299.154 237.946 298.202 242.995C297.25 248.043 318.793 259.031 318.19 258.742C317.588 258.453 320.925 201.849 320.925 201.849Z" fill="#263238"/>
<path d="M310.913 377.105C310.262 377.346 310.106 378.575 310.009 381.009C309.937 382.852 309.539 386.069 311.696 386.707C313.853 387.346 317.021 387.021 318.407 385.286C320.13 383.117 321.299 381.213 323.757 378.563C325.901 376.274 328.202 374.129 329.07 370.912C329.853 367.996 329.202 366.743 327.214 365.9C324.491 364.695 320.202 368.526 318.07 369.129C316.226 369.647 311.552 376.864 310.913 377.105Z" fill="#263238"/>
<path d="M310.913 374.853V377.841C312.035 378.558 313.331 378.957 314.662 378.993C315.993 379.029 317.309 378.701 318.467 378.046C318.6 377.757 319.251 373.769 319.251 373.769L310.913 374.853Z" fill="#FFA8A7"/>
<path d="M335.118 394.335C335.118 394.335 334.263 396.937 333.805 399.154C333.431 400.962 332.913 403.974 333.54 405.347C334.166 406.721 336.648 407.588 340.468 407.552C342.95 407.552 346.817 409.227 349.456 410.697C352.094 412.167 357.89 412.829 360.769 412.492C364.167 412.094 367.697 410.082 368.251 408.709C368.805 407.335 368.071 405.829 360.046 402.407C359.974 402.407 348.89 398.793 344.998 394.492L335.118 394.335Z" fill="#263238"/>
<path d="M335.118 391.106C335.118 391.106 335.118 393.323 335.118 394.588C335.118 395.853 336.612 397.745 340.492 397.612C343.215 397.516 345.106 396.781 344.998 394.54V391.299L335.118 391.106Z" fill="#FFA8A7"/>
<path d="M308.962 335.177C309.628 329.881 310.81 324.664 312.492 319.598C312.492 319.598 311.431 306.164 310.913 293.429C310.359 279.67 310.913 262.369 310.684 258.947C310.684 258.947 355.083 249.959 355.878 265.863C356.673 281.766 354.119 322.249 353.601 329.237C353.083 336.225 351.866 342.406 350.42 353.731C348.974 365.057 344.998 391.298 344.998 391.298C343.463 392.081 341.758 392.473 340.034 392.439C338.311 392.406 336.623 391.948 335.119 391.106C335.119 391.106 331.998 359.298 332.323 351.237C332.577 345.25 333.606 339.321 335.384 333.599L333.805 309.08C333.058 297.67 332.275 292.212 332.094 287.236L331.143 286.754C331.143 286.754 330.167 306.442 329.649 313.43C329.131 320.418 328.01 327.117 326.034 340.093C324.275 351.346 319.058 375.166 319.058 375.166C313.986 377.913 310.962 374.816 310.962 374.816C310.962 374.816 307.612 344.936 308.962 335.177Z" fill="#455A64"/>
<path d="M332.094 287.273C332.094 287.273 321.323 281.96 315.937 277.177C315.937 277.177 320.937 284.225 327.515 287.358C327.515 287.358 329.853 311.804 329.841 311.322L331.19 287.225L332.094 287.273Z" fill="#37474F"/>
<path d="M341.685 196.813L339.058 211.272L325.998 210.32L328.733 193.922L341.685 196.813Z" fill="#FFA8A7"/>
<path d="M312.202 209.26C313.491 205.332 318.479 201.055 323.467 202.031C330.886 203.286 338.197 205.111 345.335 207.489C349.901 209.115 354.058 213.067 354.444 228.104L356.757 272.876L351.227 274.08L349.299 263.936L348.407 274.08C342.624 275.526 332.588 274.333 325.997 272.876C312.262 269.875 310.611 264.177 310.611 264.177C310.611 264.177 310.431 238.983 310.84 228.104C311.226 218.802 311.31 211.911 312.202 209.26Z" fill="#37474F"/>
<path d="M351.347 179.681C351.347 179.681 354.516 184.368 354.106 184.862C353.374 185.356 352.557 185.711 351.697 185.91L351.347 179.681Z" fill="#FFA8A7"/>
<path d="M341.684 164.837C344.733 166.379 349.998 169.223 351.444 180.368C352.938 191.813 350.974 195.5 349.432 197.018C348.383 198.042 342.697 198.103 339.853 197.247C336.239 196.175 328.263 193.127 324.6 187.247C320.287 180.331 319.323 171.066 324.19 167.379C331.022 162.199 339.106 163.536 341.684 164.837Z" fill="#FFA8A7"/>
<path d="M352.082 168.669C351.082 171.416 349.395 178.139 342.383 180.947C342.383 180.947 341.383 176.657 337.781 177.115C334.178 177.573 333.564 182.163 335.781 185.019C337.998 187.874 340.142 186.838 340.142 186.838C340.142 186.838 340.624 192.983 336.528 195.766C336.528 195.766 331.576 198.899 326.335 196.489C323.925 195.405 320.636 189.754 318.684 185.115C314.539 175.308 313.949 167.44 320.202 164.958C320.973 160.5 322.985 158.826 327.021 157.994C335.708 156.199 342.275 161.91 349.576 160.91C353.395 160.38 353.227 165.537 352.082 168.669Z" fill="#37474F"/>
<path d="M320.057 166.452L315.961 163.922C316.12 163.638 316.334 163.389 316.592 163.191C316.849 162.992 317.144 162.847 317.459 162.766C317.774 162.684 318.102 162.667 318.424 162.715C318.745 162.764 319.054 162.877 319.33 163.048C319.607 163.219 319.846 163.444 320.034 163.71C320.221 163.976 320.353 164.277 320.421 164.595C320.488 164.913 320.491 165.241 320.429 165.561C320.366 165.88 320.24 166.183 320.057 166.452Z" fill="#37474F"/>
<path d="M340.721 202.078L342.215 206.404C342.215 206.404 341.118 208.331 336.456 208.428C331.793 208.524 326.817 207.042 325.275 205.054C324.924 204.665 324.663 204.202 324.513 203.7C324.363 203.198 324.327 202.669 324.407 202.151C324.407 202.151 326.263 198.054 328.022 198.235L327.733 200.018C327.733 200.018 328.13 201.476 332.359 202.596C338.937 204.343 340.721 202.078 340.721 202.078Z" fill="#455A64"/>
<path d="M378.191 230.826C380.07 228.669 380.793 223.886 383.299 220.609C385.806 217.332 386.733 214.934 387.721 216.368C389.034 218.26 386.071 222.055 386.733 222.392C387.396 222.73 389.842 227.766 390.095 230.537C390.348 233.308 382.998 240.296 382.998 240.296L378.191 230.826Z" fill="#FFA8A7"/>
<path d="M340.721 202.079C341.024 202.073 341.323 202.149 341.586 202.3C341.849 202.451 342.066 202.67 342.215 202.934C342.952 204.265 343.611 205.637 344.191 207.043L342.215 206.404L340.721 202.079Z" fill="#455A64"/>
<path d="M386.528 222.007C386.528 222.007 395.408 221.236 396.697 222.007C397.986 222.778 397.601 226.622 396.697 228.983C395.794 231.345 391.263 232.875 387.058 235.718C387.058 235.285 386.528 222.007 386.528 222.007Z" fill="#FFA8A7"/>
<path d="M344.191 207.09C348.01 208.428 351.348 209.958 354.914 216.657C359.492 225.259 368.167 239.019 368.167 239.019L378.155 230.211C378.155 230.211 379.661 228.753 382.468 233.392C383.291 234.641 383.812 236.064 383.989 237.548C384.167 239.033 383.997 240.539 383.493 241.946C383.493 241.946 371.962 255.477 369.757 257.537C367.553 259.597 363.902 257.995 361.528 254.754C359.155 251.513 344.155 232.778 344.155 232.778C344.155 232.778 336.01 221.958 344.191 207.09Z" fill="#37474F"/>
<path d="M447.216 184.597H418.77C417.696 184.597 416.667 184.17 415.908 183.411C415.148 182.652 414.722 181.622 414.722 180.548V135.355C414.722 131.798 416.135 128.388 418.65 125.873C421.164 123.358 424.575 121.945 428.132 121.945H437.891C441.441 121.955 444.843 123.372 447.35 125.885C449.857 128.399 451.265 131.805 451.265 135.355V180.548C451.265 181.622 450.838 182.652 450.079 183.411C449.32 184.17 448.29 184.597 447.216 184.597Z" fill="#37474F"/>
<path d="M413.975 169.175C411.216 177.308 406.589 200.706 406.589 200.706C406.589 200.706 396.951 212.489 393.806 215.345C392.083 216.935 388.204 219.79 388.204 219.79L395.252 224.971C401.616 220.076 407.593 214.699 413.132 208.887C414.364 207.576 415.228 205.963 415.638 204.212L420.457 183.537C420.457 183.537 420.457 166.91 422.999 164.729C425.542 162.549 426.276 162.091 426.276 162.091C423.011 161.85 416.144 162.777 413.975 169.175Z" fill="#F28F8F"/>
<path d="M427.782 161.85C423.288 161.332 417.529 161.428 414.722 166.452C411.915 171.476 407.24 197.453 407.24 197.453C407.24 197.453 411.662 200.886 416.433 200.826L427.782 161.85Z" fill="#E3A563"/>
<path d="M415.288 186.054C416.097 189.927 416.409 193.886 416.216 197.838C415.866 203.042 412.276 212.127 412.276 212.127C412.276 212.127 415.083 215.211 422.999 213.97C429.445 212.97 427.168 193.488 423.469 189.753C421.312 187.524 418.386 186.202 415.288 186.054Z" fill="#BA68C8"/>
<path opacity="0.3" d="M415.288 186.054C416.097 189.927 416.409 193.886 416.216 197.838C415.866 203.042 412.276 212.127 412.276 212.127C412.276 212.127 415.083 215.211 422.999 213.97C429.445 212.97 427.168 193.488 423.469 189.753C421.312 187.524 418.386 186.202 415.288 186.054Z" fill="black"/>
<path d="M430.18 323.647C430.231 324.536 430.008 325.419 429.541 326.177C428.349 328.146 426.948 329.98 425.36 331.647C423.131 334.057 419.794 336.888 417.396 338.972C416.071 340.177 416.023 341.888 417.927 342.502C421.475 343.367 425.219 342.845 428.397 341.045C430.806 339.767 434.156 333.816 436.132 332.972C438.409 331.948 439.674 331.442 440.445 330.394C441.028 329.798 441.392 329.022 441.477 328.193C441.563 327.363 441.364 326.53 440.915 325.827C439.843 323.827 438.228 320.755 437.565 321.105L437.77 321.731C437.252 323.358 432.818 325.249 430.541 324.803L430.18 323.647Z" fill="#37474F"/>
<path d="M453.397 255.67C454.421 244.826 457.361 227.38 454.349 214.464L414.348 216.585C413.24 229.32 411.939 269.08 413.336 273.634C414.951 279.008 429.373 316.201 430.204 323.683C430.261 324.561 430.038 325.435 429.566 326.177C428.375 328.151 426.973 329.989 425.385 331.659C424.3 332.864 422.975 334.069 421.577 335.274C421.46 335.445 421.39 335.645 421.373 335.852C421.373 337.057 424.409 337.43 426.192 336.912C428.416 336.127 430.332 334.655 431.662 332.707C432.686 331.346 434.987 328.731 436.481 326.767C436.98 326.161 437.405 325.498 437.746 324.791C438.145 323.909 438.214 322.913 437.939 321.984L437.843 321.683C437.061 319.244 436.576 316.72 436.397 314.165C435.843 305.96 434.433 287.008 433.132 281.959C432.228 278.281 430.856 274.734 429.047 271.405L433.614 235.874C433.614 235.874 434.096 267.2 435.517 275.188C436.638 281.586 437.072 289.586 438.385 300.562C439.59 311.068 440.987 329.575 440.987 329.575C441.023 329.581 441.06 329.581 441.096 329.575V338.418H448.578V333.286C448.578 330.968 448.771 328.655 449.156 326.37C450.361 319.382 452.867 303.394 453.385 297.984C454.204 289.405 451.108 278.622 451.108 278.622C451.108 278.622 452.397 266.248 453.397 255.67Z" fill="#FFA8A7"/>
<path d="M439.301 162.222C439.301 162.222 450.06 163.427 451.349 164.041C441.253 171.138 449.433 186.933 449.433 186.933L445.566 199.066C449.867 204.572 453.578 207.849 455.879 213.885C458.434 220.633 460.699 230.669 460.096 251.235C450.458 258.464 421.132 257.681 409.71 251.235C409.71 251.235 411.638 233.079 413.915 218.97C415.421 209.656 418.975 199.512 418.373 196.078C413.843 182.15 413.553 179.644 414.373 176.535C416.626 167.788 425.542 161.873 427.734 161.873L439.301 162.222Z" fill="#BA68C8"/>
<path opacity="0.6" d="M439.301 162.222C439.301 162.222 450.06 163.427 451.349 164.041C441.253 171.138 449.433 186.933 449.433 186.933L445.566 199.066C449.867 204.572 453.578 207.849 455.879 213.885C458.434 220.633 460.699 230.669 460.096 251.235C450.458 258.464 421.132 257.681 409.71 251.235C409.71 251.235 411.638 233.079 413.915 218.97C415.421 209.656 418.975 199.512 418.373 196.078C413.843 182.15 413.553 179.644 414.373 176.535C416.626 167.788 425.542 161.873 427.734 161.873L439.301 162.222Z" fill="#FFCE20"/>
<path d="M441.024 334.671V333.599C440.084 337.202 438.204 340.491 435.578 343.129C433.168 345.31 429.915 347.84 429.072 350.286C428.228 352.732 432.939 353.828 436.048 353.515C439.06 353.147 441.835 351.695 443.855 349.431C445.831 347.166 445.795 345.623 446.71 344.37C447.626 343.117 449.759 341.744 450.253 340.298C450.407 338.949 450.259 337.583 449.819 336.298C449.47 334.961 449.084 333.479 448.614 333.599V334.431C447.53 335.283 446.186 335.739 444.807 335.72C443.759 335.744 441.012 335.515 441.024 334.671Z" fill="#37474F"/>
<path d="M448.578 334.407C447.494 335.26 446.15 335.715 444.771 335.696C443.662 335.696 440.963 335.515 440.975 334.672V333.6C440.035 337.202 438.156 340.491 435.529 343.13L433.71 344.756C432.433 346.178 432.794 347.419 435.794 347.672C438.795 347.925 441.433 346.118 443.698 343.335C445.629 340.536 447.265 337.544 448.578 334.407Z" fill="#FFA8A7"/>
<path d="M420.722 129.331C418.795 130.475 416.409 135.355 416.638 145.5C416.843 154.126 419.638 156.259 421.048 156.873C422.457 157.488 425.156 157.114 427.783 156.68V161.849C427.783 161.849 424.168 166.078 424.373 168.452C424.578 170.825 429.626 171.379 433.036 169.066C435.498 167.157 437.616 164.843 439.301 162.223L439.241 150.331C439.241 150.331 440.795 151.825 443.421 149.536C445.59 147.644 446.313 144.439 444.626 142.728C444.188 142.317 443.658 142.016 443.08 141.85C442.502 141.685 441.893 141.66 441.304 141.778C440.714 141.896 440.161 142.153 439.691 142.528C439.222 142.903 438.848 143.385 438.602 143.933C438.602 143.933 437.144 139.873 431.084 137.909C425.614 136.09 422.638 134.029 420.722 129.331Z" fill="#FFA8A7"/>
<path d="M426.276 143.343C426.277 143.555 426.339 143.763 426.456 143.94C426.573 144.117 426.74 144.256 426.935 144.339C427.131 144.423 427.346 144.447 427.555 144.409C427.764 144.371 427.957 144.272 428.111 144.125C428.264 143.978 428.371 143.79 428.418 143.582C428.465 143.375 428.45 143.159 428.376 142.96C428.301 142.761 428.17 142.589 427.998 142.464C427.826 142.34 427.621 142.268 427.409 142.259C427.263 142.255 427.119 142.281 426.983 142.334C426.847 142.386 426.723 142.465 426.618 142.566C426.513 142.667 426.429 142.787 426.37 142.921C426.311 143.054 426.279 143.197 426.276 143.343Z" fill="#37474F"/>
<path d="M425.987 150.644L423.469 151.451C423.514 151.619 423.591 151.777 423.698 151.914C423.805 152.051 423.938 152.166 424.09 152.25C424.242 152.334 424.409 152.387 424.582 152.405C424.755 152.423 424.93 152.406 425.096 152.355C425.436 152.239 425.718 151.997 425.884 151.678C426.05 151.359 426.087 150.989 425.987 150.644Z" fill="#F28F8F"/>
<path d="M417.384 140.005L419.577 138.487C419.485 138.339 419.363 138.211 419.219 138.111C419.075 138.012 418.913 137.942 418.742 137.907C418.57 137.872 418.394 137.873 418.223 137.908C418.051 137.944 417.889 138.014 417.746 138.114C417.452 138.321 417.25 138.633 417.183 138.986C417.115 139.339 417.188 139.705 417.384 140.005Z" fill="#37474F"/>
<path d="M429.433 140.825L427.228 139.306C427.321 139.159 427.443 139.031 427.586 138.931C427.729 138.831 427.891 138.761 428.062 138.725C428.233 138.689 428.409 138.688 428.581 138.722C428.752 138.755 428.915 138.823 429.059 138.921C429.351 139.132 429.552 139.446 429.621 139.799C429.691 140.152 429.623 140.519 429.433 140.825Z" fill="#37474F"/>
<path d="M417.891 142.547C417.889 142.76 417.949 142.969 418.065 143.148C418.18 143.326 418.346 143.467 418.541 143.552C418.736 143.637 418.952 143.663 419.162 143.626C419.372 143.59 419.566 143.492 419.721 143.346C419.875 143.199 419.983 143.011 420.031 142.803C420.079 142.596 420.065 142.379 419.991 142.179C419.917 141.98 419.785 141.807 419.613 141.682C419.441 141.556 419.236 141.484 419.023 141.475C418.731 141.468 418.449 141.577 418.236 141.778C418.024 141.979 417.9 142.255 417.891 142.547Z" fill="#37474F"/>
<path d="M422.999 141.934L422.831 148.464L419.397 147.404L422.999 141.934Z" fill="#F28F8F"/>
<path d="M427.782 156.68C430.553 156.307 436.216 154.668 437.156 152.415C436.798 153.556 436.1 154.561 435.156 155.295C433.445 156.752 427.782 158.403 427.782 158.403V156.68Z" fill="#F28F8F"/>
<path d="M447.433 192.452L439.831 202.741L445.566 199.067L447.433 192.452Z" fill="#BA68C8"/>
<path d="M387.541 219.79C385.914 221.886 384.914 225.959 384.059 227.332C383.203 228.706 382.179 229.899 384.059 230.152C385.938 230.405 388.685 226.73 389.71 224.501C390.228 223.244 391.206 222.231 392.445 221.67C391.565 221.368 392.023 217.838 391.408 217.344C391.408 217.344 388.204 218.658 387.541 219.79Z" fill="#F28F8F"/>
<path d="M387.059 235.694C388.758 234.429 388.818 232.874 389.143 230.404C389.469 227.934 396.276 225.26 396.493 227.103C396.71 228.947 397.324 230.489 395.288 232.73C393.252 234.971 390.168 237.356 387.059 235.694Z" fill="#F28F8F"/>
<path d="M439.3 162.222C439.3 162.222 449.373 163.102 451.349 164.041C453.325 164.981 456.614 170.668 453.674 178.921C450.734 187.174 448.06 196.885 448.361 198.837C448.662 200.789 455.686 210.886 455.686 210.886C453.748 212.316 451.557 213.367 449.228 213.982L445.614 206.126L446.457 214.476C442.827 215.359 439.096 215.764 435.361 215.681C435.361 215.681 431.951 183.608 439.3 162.222Z" fill="#E3A563"/>
<path d="M464.12 201.561C464.927 196.814 464.12 195.26 462.457 190.609L454.023 196.067C454.715 197.822 455.122 199.677 455.228 201.561C455.156 202.934 453.288 216.549 451.541 221.296C451.227 222.14 450.608 222.836 449.806 223.248C448.069 224.309 446.495 225.616 445.132 227.128C443.842 228.332 442.806 228.549 442.939 228.959C443.138 229.403 443.494 229.758 443.939 229.956C444.383 230.154 444.885 230.181 445.349 230.031C446.398 229.69 447.405 229.229 448.349 228.658C447.512 230.43 446.397 232.057 445.047 233.477C441.951 236.778 441.674 238.923 447.457 239.369C451.072 239.646 454.096 237.622 457.361 229.85C458.373 227.002 459.206 224.092 459.855 221.139C461.614 214.404 463.325 206.344 464.12 201.561Z" fill="#FFA8A7"/>
<path d="M451.349 164.042C455.409 165.861 456.566 169.451 458.072 174.728C459.578 180.006 464.301 195.837 464.301 195.837C464.301 195.837 460.253 200.657 454.662 199.307L447.433 181.753C447.433 181.753 444.06 170.295 451.349 164.042Z" fill="#E3A563"/>
</svg>
