<svg xmlns="http://www.w3.org/2000/svg" xmlns:xlink="http://www.w3.org/1999/xlink" viewBox="0 0 1449 639.75"><defs><style>.cls-1{fill:#addcfb;}.cls-2{fill:url(#Dégradé_sans_nom);}.cls-3{fill:#ceecff;}</style><radialGradient id="Dégradé_sans_nom" cx="481" cy="1522.33" r="1" gradientTransform="matrix(0, 364.76, 724.5, 0, -1102207, -175086.25)" gradientUnits="userSpaceOnUse"><stop offset="0" stop-color="#129cf7"/><stop offset="1" stop-color="#058de8"/></radialGradient></defs><g id="Calque_2" data-name="Calque 2"><g id="Calque_1-2" data-name="Calque 1"><path class="cls-1" d="M417,568C209.94,548.35,51.13,581.29,0,597.66v18.55C234.64,580.52,372.58,584,412.21,590.14c38.38,2.41,184.21,18.38,252.33,26.07,219.85,20,314,.33,398.46-15.21,67.56-12.43,287.24-112.56,386-157V419c-69.78,35.25-253.73,123.83-395.23,161.12S735.78,606.52,665,597C581.86,586.17,466.46,571.84,417,568Z"/><path class="cls-2" d="M1449,427.72V0H0V598.26c83.18-28.87,320.53-48.26,686.26,1.8C1055.37,650.58,1340.32,472.51,1449,427.72Z"/><path class="cls-3" d="M412.21,589.1C205.16,569.45,51.13,597.29,0,613.66v18.55C234.64,596.52,372.58,600,412.21,606.14c38.38,2.41,184.21,18.38,252.33,26.07,219.85,20,310.28-4.52,394.72-20.05C1126.82,599.73,1345.74,512.7,1449,457V433c-74.28,46.51-253.73,125.83-395.23,163.12s-318.45,27.56-389.23,18C581.4,603.34,461.68,592.94,412.21,589.1Z"/></g></g></svg>