<svg xmlns="http://www.w3.org/2000/svg" viewBox="0 0 515.41 176"><defs><style>.cls-1{fill:#fff;}</style></defs><g id="Calque_2" data-name="Calque 2"><g id="Calque_1-2" data-name="Calque 1"><path class="cls-1" d="M24.86,32H136.65l27.15,46.3L208.94,0H230l-55.4,95.68L181.79,108,243.93,0H266L181.79,144.71l-55.4-94.88-13.91-.34,62.14,108.19L163.8,176,90.74,49.83,20,48.47C20.11,48.47,21.44,36.06,24.86,32Z"/><path class="cls-1" d="M130.11,17.74,120.52,0H49.07S0,3.64,0,59s55.68,53.78,55.68,53.78h35s5.29,1.36,5.29,5.68c0,0,.44,6.82-5.4,6.82H7.28l10.36,18.87H93.73s22.38-3.63,19.4-30.81c0,0,9.82,3.07,10.48,11.15,0,0,2.75,32.29-29.11,32.29h-69L35.73,176H99.79s36.83-7.39,42.56-38.88S113.79,94,113.79,94l-55.35-.46H49S4.52,91.07,26.57,32c0,0,9.49-13.65,22.72-13.65S130.11,17.74,130.11,17.74Z"/><path class="cls-1" d="M253.89,148.17V176h-9.37V104.91h26.22q11.67,0,18.26,6t6.64,15.77q0,10.37-6.5,16t-18.5,5.57Zm0-7.67h16.85q7.51,0,11.52-3.51t4-10.26a13.35,13.35,0,0,0-4-10.15q-4-3.81-11-4H253.89Zm79.79,6.74H317V176h-9.43V104.91h23.54q12,0,18.46,5.47T356,126.29a19.13,19.13,0,0,1-3.61,11.58,21.37,21.37,0,0,1-10,7.37l16.69,30.17V176H349.11ZM317,139.57h14.4q7,0,11.09-3.61a12.2,12.2,0,0,0,4.15-9.67q0-6.58-4-10.1t-11.33-3.57H317ZM379.28,176h-9.37V104.91h9.37Zm71.83,0h-9.43l-35.79-54.79V176h-9.42V104.91h9.42l35.89,55v-55h9.33Zm64.3-63.38H492.56V176h-9.32V112.62H460.43v-7.71h55Z"/></g></g></svg>