<svg width="92" height="44" viewBox="0 0 92 44" fill="none" xmlns="http://www.w3.org/2000/svg">
<path fill-rule="evenodd" clip-rule="evenodd" d="M39.9941 0.475794C38.9006 0.927334 37.6518 2.07326 37.4076 2.84901C37.3192 3.12933 37.1403 3.35882 37.0097 3.35882C36.879 3.35882 36.7721 3.69588 36.7721 4.10763C36.7721 4.51938 36.6835 4.89468 36.5756 4.94191C36.2937 5.06461 33.9715 8.89179 33.9715 9.23372C33.9715 9.39108 33.8842 9.51969 33.7773 9.51969C33.5827 9.51969 33.1229 10.2803 32.8072 11.1241C32.7148 11.3713 32.5379 11.5733 32.4141 11.5733C32.2906 11.5733 32.1893 11.7384 32.1893 11.9401C32.1893 12.1417 32.0457 12.4594 31.8706 12.6461C31.6951 12.8324 31.3252 13.4185 31.0487 13.9478C30.7722 14.4774 30.4575 14.9104 30.3493 14.9104C30.2411 14.9104 30.1525 15.0755 30.1525 15.2773C30.1525 15.4788 30.0028 15.7966 29.82 15.9832C29.6372 16.1696 29.4116 16.5243 29.3187 16.7715C29.226 17.0187 29.032 17.2208 28.8874 17.2208C28.7145 17.2208 28.6249 15.1302 28.6249 11.0892C28.6249 6.68492 28.5353 4.78352 28.3067 4.33943C27.812 3.37808 25.5784 1.3052 25.0371 1.3052C24.77 1.3052 24.5513 1.18968 24.5513 1.0485C24.5513 0.894477 23.538 0.791795 22.0204 0.791795C20.6076 0.791795 19.4199 0.905258 19.332 1.0485C19.2455 1.18968 18.9552 1.3052 18.6871 1.3052C18.1662 1.3052 15.8949 3.43301 15.8949 3.921C15.8949 4.36304 15.0583 6.18255 14.8552 6.18255C14.7571 6.18255 14.6051 6.47134 14.5173 6.82431C14.4295 7.17728 14.2451 7.46607 14.1079 7.46607C13.9704 7.46607 13.8581 7.5821 13.8581 7.7238C13.8581 7.93403 10.4671 13.7501 9.5185 15.1671C9.37669 15.3789 9.19337 15.7542 9.11088 16.0014C9.02865 16.2486 8.8601 16.4507 8.73637 16.4507C8.61289 16.4507 8.51156 16.5644 8.51156 16.7035C8.51156 17.0293 6.94042 19.6325 6.67564 19.7449C6.56514 19.7922 6.47476 20.0019 6.47476 20.2114C6.47476 20.4208 6.20259 20.9599 5.87008 21.4094C5.53758 21.8589 4.89166 22.9196 4.43465 23.7667C3.9779 24.6138 2.91902 26.3453 2.0819 27.6147C0.78624 29.5787 0.540043 30.1386 0.429037 31.3756C0.356985 32.1747 0.370734 33.2157 0.459334 33.6885C0.632971 34.616 2.25553 36.7302 2.7935 36.7302C2.97452 36.7302 3.16216 36.8501 3.21054 36.9966C3.25917 37.1432 4.11971 37.3327 5.12284 37.4174C6.69626 37.5503 7.09598 37.4934 8.03265 37.001C9.17733 36.3995 10.5374 35.0316 10.5443 34.475C10.5478 34.1788 11.223 32.9489 11.5609 32.6227C11.6342 32.5521 11.8944 32.1188 12.1396 31.66C12.3845 31.2013 12.7855 30.4507 13.0307 29.992C13.2756 29.5333 13.5419 29.0999 13.6221 29.0294C13.7023 28.9585 13.8464 28.7275 13.9427 28.5157C14.0387 28.3039 14.3264 27.7841 14.5822 27.3605C14.8381 26.937 15.428 25.8973 15.8932 25.0502C16.3583 24.2031 17.0073 23.079 17.3355 22.5525C17.6634 22.0257 17.9317 21.4772 17.9317 21.3331C17.9317 21.1891 18.044 21.0713 18.1815 21.0713C18.3187 21.0713 18.501 20.791 18.5863 20.448C18.6716 20.1053 18.903 19.7624 19.1004 19.6861C19.4036 19.5688 19.4593 20.6 19.4593 26.3358V33.1245L20.8212 34.5423C21.5702 35.3222 22.2974 35.9601 22.4371 35.9601C22.5767 35.9601 23.0573 36.1444 23.5049 36.3695C24.5182 36.8791 29.1509 36.8087 29.3253 36.2809C29.3834 36.1046 29.5372 35.9601 29.6667 35.9601C30.0377 35.9601 31.4255 34.6268 31.4255 34.2705C31.4255 34.0938 31.5116 33.9108 31.6165 33.8636C31.7214 33.8166 32.0717 33.2583 32.3948 32.6229C32.7176 31.9876 33.3228 30.8902 33.7396 30.1843C34.1561 29.4783 34.568 28.7275 34.6549 28.5157C34.7417 28.3039 34.9505 27.9574 35.1187 27.7456C35.2873 27.5338 35.7568 26.7252 36.1621 25.9487C36.5674 25.1721 37.0422 24.3841 37.2174 24.1977C37.3926 24.0111 37.5359 23.6933 37.5359 23.4918C37.5359 23.29 37.6232 23.1249 37.7302 23.1249C37.8368 23.1249 38.0375 22.9052 38.1757 22.6364C38.314 22.3677 38.6561 21.7033 38.9362 21.1604L39.4454 20.1729L39.5727 26.4621C39.7089 33.1887 39.8166 33.7935 41.1301 35.1959C42.4823 36.639 42.7929 36.6791 51.5389 36.5425C55.9498 36.4735 59.6675 36.3143 59.8006 36.1885C59.9335 36.063 60.1874 35.9601 60.3648 35.9601C60.7503 35.9601 61.9296 34.8221 62.5503 33.8513C62.8744 33.3443 62.9959 32.6252 62.9959 31.2111C62.9959 29.1523 62.7438 28.4977 61.4632 27.2322C60.0802 25.8655 59.8732 25.8203 54.976 25.8203H50.3932L50.2659 15.0388C50.1287 3.42557 50.1806 3.84091 48.6764 2.28427C46.6977 0.236805 42.6266 -0.611342 39.9941 0.475794ZM55.2479 1.53341C55.171 1.65894 54.8293 1.83221 54.4889 1.91846C53.7623 2.10226 52.4045 3.40118 52.1744 4.13253C52.086 4.41285 51.907 4.64234 51.7764 4.64234C51.6458 4.64234 51.5389 5.45557 51.5389 6.44952C51.5389 8.33192 51.9506 9.51815 53.0415 10.7783C53.3353 11.1177 53.5757 11.5507 53.5757 11.7409C53.5757 11.9312 53.6903 12.0867 53.8303 12.0867C53.9703 12.0867 54.0849 12.202 54.0849 12.3429C54.0849 12.4838 54.8869 13.9198 55.8671 15.5345C56.8473 17.1489 57.6493 18.5931 57.6493 18.7438C57.6493 18.8945 57.7379 19.0177 57.8461 19.0177C57.9543 19.0177 58.269 19.451 58.5455 19.9803C58.822 20.5099 59.1919 21.0957 59.3673 21.2821C59.5425 21.4687 59.6861 21.7865 59.6861 21.988C59.6861 22.1898 59.7874 22.3548 59.9109 22.3548C60.0346 22.3548 60.2032 22.5569 60.2854 22.8041C60.3679 23.0513 60.5512 23.4266 60.693 23.6383C61.5749 24.956 65.0533 30.9526 65.6809 32.2379C66.7339 34.3944 68.3045 35.8843 69.7565 36.1038C71.0893 36.3053 73.689 36.0284 73.689 35.6849C73.689 35.554 73.8288 35.4467 73.9997 35.4467C74.421 35.4467 75.5797 34.043 76.1503 32.8414C76.4069 32.301 76.7028 31.8574 76.8079 31.8556C76.913 31.8541 76.9988 31.6878 76.9988 31.486C76.9988 31.2845 77.1557 30.9613 77.3471 30.7683C77.5389 30.575 77.7756 30.1624 77.8734 29.8513C77.9714 29.5404 78.1583 29.2858 78.2889 29.2858C78.4195 29.2858 78.5264 29.1125 78.5264 28.9007C78.5264 28.689 78.641 28.5157 78.781 28.5157C78.9211 28.5157 79.0356 28.3506 79.0356 28.1489C79.0356 27.9473 79.1925 27.6242 79.3839 27.4311C79.5757 27.2378 79.8124 26.8253 79.9102 26.5142C80.0082 26.2033 80.1951 25.9487 80.3257 25.9487C80.4563 25.9487 80.5632 25.7754 80.5632 25.5636C80.5632 25.3518 80.6778 25.1786 80.8178 25.1786C80.9579 25.1786 81.0724 25.0135 81.0724 24.8117C81.0724 24.6102 81.216 24.2924 81.3912 24.1058C81.5666 23.9194 81.9366 23.3336 82.2131 22.8041C82.4895 22.2747 82.791 21.8414 82.8829 21.8414C82.9748 21.8414 83.1222 21.6394 83.2108 21.3922C83.385 20.9065 83.7129 20.3379 84.5095 19.1396C85.2927 17.9616 85.6428 17.3845 85.8291 16.9641C85.9231 16.7523 86.0697 16.5213 86.155 16.4507C86.2403 16.3801 86.873 15.3982 87.5609 14.2687C88.2491 13.1392 88.9037 12.1766 89.0157 12.1296C89.128 12.0824 89.2196 11.8885 89.2196 11.6986C89.2196 11.5086 89.367 11.2006 89.547 11.014C91.0469 9.46065 91.2564 8.90232 91.2564 6.46082C91.2564 4.75452 91.1551 3.99006 90.8941 3.72694C90.6948 3.52594 90.3226 3.10058 90.0667 2.78124C88.8222 1.2287 89.7688 1.3052 71.8035 1.3052C62.4979 1.3052 55.3273 1.40403 55.2479 1.53341ZM34.0408 41.1622C32.5226 41.8635 33.3045 43.9232 34.9263 43.4956C35.5559 43.3295 36.0063 42.2957 35.6491 41.8363C35.0571 41.0741 34.6243 40.8929 34.0408 41.1622ZM4.4456 41.7687C4.44153 42.0691 4.26611 42.4585 4.05606 42.6343C3.73705 42.9013 3.67416 42.8643 3.67416 42.409C3.67416 42.1094 3.55679 41.8642 3.4132 41.8642C3.0425 41.8642 2.60154 43.158 2.80776 43.6411C2.94372 43.9602 3.01984 43.9099 3.16547 43.4044L3.35057 42.7627L3.59677 43.3813L3.84271 44L4.26764 43.3883C4.50136 43.052 4.70682 42.8602 4.72439 42.9622C4.74195 43.0643 4.77047 43.2538 4.78804 43.3831C4.8056 43.5125 4.92094 43.7145 5.04467 43.8324C5.31684 44.0914 4.99757 42.1594 4.67703 41.6075C4.49856 41.3003 4.45197 41.3326 4.4456 41.7687ZM6.79301 41.5385C6.34797 41.6948 6.39456 42.6194 6.85666 42.7981C7.0667 42.8795 7.23856 43.0492 7.23856 43.1752C7.23856 43.3013 7.0667 43.4044 6.85666 43.4044C6.64661 43.4044 6.47476 43.5056 6.47476 43.6291C6.47476 43.7525 6.76118 43.8537 7.11126 43.8537C7.5675 43.8537 7.74776 43.7151 7.74776 43.3644C7.74776 43.0951 7.5759 42.8084 7.36586 42.7273C7.15581 42.6459 6.98396 42.4221 6.98396 42.2298C6.98396 42.0247 7.14156 41.9412 7.36586 42.028C7.5759 42.1094 7.74776 42.0603 7.74776 41.9192C7.74776 41.6003 7.21794 41.3888 6.79301 41.5385ZM10.3701 42.6343C10.3701 43.4109 10.4177 43.7284 10.476 43.3403C10.5344 42.9521 10.5344 42.3165 10.476 41.9284C10.4177 41.5403 10.3701 41.8578 10.3701 42.6343ZM11.4944 41.6889C10.9605 42.1181 10.7979 43.3374 11.2266 43.6961C11.4204 43.8583 11.6622 43.9009 11.7638 43.791C11.8654 43.6809 11.8056 43.5392 11.6304 43.4763C11.2167 43.3272 11.221 42.4328 11.6375 42.0129C11.9018 41.7464 12.0217 41.7477 12.274 42.0203C12.6783 42.4567 12.674 43.3297 12.2669 43.4763C12.092 43.5392 12.0296 43.6786 12.1287 43.7862C12.5312 44.2228 13.0943 43.6547 13.0943 42.812C13.0943 41.7913 12.1722 41.1439 11.4944 41.6889ZM19.6261 41.8203C19.1014 42.4049 19.0835 43.2402 19.5866 43.6612C20.0098 44.0151 20.089 43.7371 19.7287 43.1629C19.5785 42.9236 19.6271 42.5386 19.8664 42.0719C20.2949 41.2361 20.2203 41.158 19.6261 41.8203ZM40.0819 42.6343C40.0819 43.3729 40.1972 43.9179 40.3536 43.9179C40.5096 43.9179 40.5565 43.6989 40.4638 43.4044C40.375 43.1221 40.4137 42.891 40.5501 42.891C40.6866 42.891 40.735 42.6482 40.6581 42.3515C40.5761 42.0352 40.6649 41.7179 40.8729 41.5852C41.139 41.4153 41.0848 41.3578 40.6548 41.3547C40.1366 41.3511 40.0819 41.4733 40.0819 42.6343ZM44.7098 42.6343C44.7268 43.4109 44.7887 43.7284 44.847 43.3403C44.9799 42.4562 45.2592 42.4408 45.6459 43.2964C45.8104 43.6604 46.0866 43.9114 46.2595 43.8542C46.6653 43.7197 46.8222 42.1399 46.4655 41.7803C46.271 41.5842 46.1903 41.723 46.1854 42.2621L46.1785 43.0194L45.4285 42.1209L44.6784 41.2225L44.7098 42.6343ZM47.2743 41.5208C46.8942 41.6756 46.8347 43.9179 47.2107 43.9179C47.3507 43.9179 47.4653 43.6953 47.4653 43.4232C47.4653 43.1513 47.6657 42.8759 47.9108 42.8112C48.3353 42.6995 48.3353 42.6924 47.9108 42.6641C47.239 42.6192 47.3461 41.6663 48.0381 41.5321C48.5178 41.4389 48.5282 41.4183 48.1018 41.406C47.8217 41.3981 47.4495 41.4497 47.2743 41.5208ZM49.2785 41.6789C48.8615 42.0994 48.9236 42.3656 49.5657 42.9054L50.1386 43.3873L49.5657 43.396C49.2505 43.4006 48.9929 43.5056 48.9929 43.6291C48.9929 43.7525 49.2793 43.8537 49.6294 43.8537C50.1297 43.8537 50.2659 43.7233 50.2659 43.244C50.2659 42.8733 50.1162 42.6343 49.884 42.6343C49.6739 42.6343 49.5021 42.4647 49.5021 42.2572C49.5021 42.0278 49.6513 41.9382 49.884 42.028C50.094 42.1094 50.2659 42.0603 50.2659 41.9192C50.2659 41.5208 49.5968 41.358 49.2785 41.6789ZM52.3396 41.691C52.1601 41.9089 52.0499 42.4685 52.0944 42.9344C52.1619 43.6404 52.2864 43.7898 52.8419 43.8316C53.7516 43.9001 54.287 42.9537 53.7913 42.1535C53.6032 41.8499 53.3134 41.654 53.1472 41.7184C52.9809 41.7829 52.8045 41.7138 52.7554 41.5649C52.7032 41.4068 52.5306 41.4589 52.3396 41.691ZM56.1662 42.2922C56.1418 42.8803 55.9786 43.4132 55.8034 43.4763C55.6285 43.5392 55.573 43.6855 55.6805 43.8013C56.0708 44.2226 56.4066 43.4473 56.3098 42.3484L56.2105 41.2225L56.1662 42.2922ZM59.5091 42.1215C59.2011 42.9444 58.5371 42.9683 58.3362 42.1633C58.2776 41.9282 58.2799 42.1402 58.3413 42.6343C58.4833 43.7805 58.8159 44.1417 59.2764 43.6501C59.583 43.3228 60.1013 41.3508 59.8808 41.3508C59.835 41.3508 59.668 41.6976 59.5091 42.1215ZM62.9997 42.5702C62.9977 43.3113 63.1104 43.9179 63.2505 43.9179C63.5761 43.9179 63.5761 42.1155 63.2505 41.6075C63.0738 41.3318 63.0025 41.6055 62.9997 42.5702ZM65.0327 42.6343C65.0327 43.3403 65.1472 43.9179 65.2873 43.9179C65.4273 43.9179 65.5419 43.6963 65.5419 43.4258C65.5419 43.1552 65.6852 42.8756 65.8601 42.8043C66.1147 42.7008 66.1147 42.6708 65.8601 42.6546C65.6852 42.6436 65.5419 42.4128 65.5419 42.1422C65.5419 41.8717 65.6852 41.5921 65.8601 41.5208C66.0353 41.4497 65.9207 41.3821 65.6055 41.3711C65.0851 41.3526 65.0327 41.4684 65.0327 42.6343ZM68.7776 42.1209L68.5759 43.0194L68.1457 42.3135C67.4885 41.2356 67.0695 41.4165 67.0695 42.7778C67.0695 43.4928 67.1685 43.8865 67.3241 43.7895C67.4641 43.7022 67.5827 43.3778 67.5878 43.0684C67.5965 42.5422 67.6367 42.5548 68.2131 43.2661C68.552 43.684 68.8983 43.9564 68.9828 43.8711C69.0673 43.7862 69.1009 43.1552 69.0576 42.4693L68.979 41.2225L68.7776 42.1209ZM70.0368 41.8203C69.5386 42.3753 69.4846 43.2918 69.9337 43.5744C70.4218 43.8814 71.1431 43.943 71.1431 43.6773C71.1431 43.5469 70.8854 43.4032 70.5702 43.3582C70.2021 43.3054 69.9683 43.0697 69.9159 42.6985C69.8713 42.3807 69.9449 42.1209 70.0796 42.1209C70.2145 42.1209 70.3907 41.9477 70.4714 41.7359C70.6649 41.2276 70.5486 41.2502 70.0368 41.8203ZM72.9253 42.6343C72.9253 43.3729 73.0406 43.9179 73.1969 43.9179C73.353 43.9179 73.3998 43.6989 73.3072 43.4044C73.2109 43.0985 73.2613 42.891 73.4324 42.891C73.5984 42.891 73.6351 42.756 73.5195 42.5702C73.4098 42.3938 73.3527 42.047 73.3932 41.8001C73.4334 41.5531 73.3446 41.3508 73.1959 41.3508C73.0408 41.3508 72.9253 41.8991 72.9253 42.6343ZM75.0002 42.7065C75.0211 43.4445 75.086 43.7292 75.1443 43.3403C75.276 42.4644 75.5448 42.4462 76.0843 43.2761C76.6849 44.2002 76.9988 44.068 76.9988 42.891C76.9988 41.7975 76.59 41.4751 76.4288 42.4418C76.3348 43.0053 76.3242 43.0024 75.9947 42.3276C75.3742 41.0572 74.9577 41.2158 75.0002 42.7065ZM5.71096 42.7627C5.71096 43.445 5.75755 43.9553 5.81458 43.8965C6.01139 43.6932 6.07707 41.8912 5.89427 41.7069C5.79345 41.6052 5.71096 42.0804 5.71096 42.7627ZM8.13526 41.8552C7.98759 42.096 8.15206 42.393 8.66152 42.804L9.40265 43.4019L8.77889 43.4032C8.32544 43.4042 8.2315 43.4815 8.43492 43.6866C8.78576 44.0403 9.78455 43.7438 9.78455 43.2864C9.78455 43.0992 9.6127 42.8795 9.40265 42.7981C8.87742 42.5951 8.92121 42.1227 9.4663 42.1132C9.8729 42.106 9.8701 42.0809 9.43601 41.8265C9.08313 41.6199 8.91 41.6294 8.76666 41.8635C8.6162 42.1086 8.54822 42.1037 8.46165 41.8416C8.37102 41.5677 8.30991 41.5703 8.13526 41.8552ZM13.8665 42.0568C13.8615 42.4028 14.0112 42.6343 14.24 42.6343C14.4501 42.6343 14.6219 42.7581 14.6219 42.9093C14.6219 43.3575 15.3323 43.9561 15.5133 43.6609C15.7396 43.2915 15.399 42.3391 15.1057 42.5219C14.9718 42.6053 14.6403 42.4048 14.3686 42.0763L13.8752 41.4792L13.8665 42.0568ZM20.3902 41.7993C20.3163 41.9197 20.4877 42.1641 20.7705 42.3422C21.2161 42.6225 21.2734 42.6066 21.1995 42.2223C21.1043 41.7266 20.5971 41.4617 20.3902 41.7993ZM22.3047 41.8309C22.1018 41.9605 22.0005 42.3938 22.0501 42.918C22.1212 43.6696 22.2289 43.7931 22.8328 43.8154C23.218 43.8296 23.5329 43.743 23.5329 43.6229C23.5329 43.5028 23.3038 43.4044 23.0237 43.4044C22.6502 43.4044 22.5145 43.2332 22.5145 42.7627C22.5145 42.4097 22.6291 42.1209 22.7691 42.1209C22.9092 42.1209 23.0237 42.0054 23.0237 41.8642C23.0237 41.5534 22.7582 41.541 22.3047 41.8309ZM24.8408 42.0552C24.6817 42.3553 24.5513 42.7719 24.5513 42.9811C24.5513 43.1904 24.4082 43.4132 24.2331 43.4763C24.0582 43.5392 24.0027 43.6855 24.1101 43.8013C24.2173 43.9173 24.4408 43.8752 24.6066 43.7081C25.0017 43.3097 25.7479 43.3195 25.9104 43.7253C25.9809 43.9019 26.0479 43.7412 26.0588 43.3688C26.0698 42.996 25.8656 42.4254 25.6046 42.1007L25.1303 41.51L24.8408 42.0552ZM29.0506 41.8642C28.8622 42.3106 28.9714 43.5826 29.2194 43.8326C29.3126 43.9266 29.3887 43.753 29.3887 43.4473C29.3887 43.1413 29.5321 42.8892 29.707 42.8872C29.9351 42.8844 29.9435 42.8297 29.7365 42.6947C29.5776 42.591 29.3948 42.275 29.3302 41.9926C29.2375 41.5862 29.1792 41.5595 29.0506 41.8642ZM38.8089 42.4908C38.8089 43.1318 38.6948 43.4044 38.427 43.4044C38.217 43.4044 38.0451 43.5279 38.0451 43.6791C38.0451 43.8301 38.3028 43.9166 38.618 43.8717C39.0829 43.8049 39.2007 43.6098 39.2433 42.8351C39.2723 42.3101 39.1862 41.8124 39.0523 41.7289C38.9148 41.6432 38.8089 41.9749 38.8089 42.4908ZM42.1615 42.6965C42.119 43.9078 42.1223 43.9132 42.8929 43.828C43.9134 43.7156 44.2186 43.3685 44.0862 42.4731C43.9791 41.7479 43.9765 41.7497 43.9391 42.5702C43.905 43.3136 43.8192 43.4044 43.1524 43.4044C42.4751 43.4044 42.3944 43.3131 42.3041 42.4418C42.2124 41.5582 42.2007 41.579 42.1615 42.6965ZM54.3395 42.6423C54.3395 43.645 54.8632 44.2654 55.3052 43.7862C55.4042 43.6786 55.3421 43.5392 55.1669 43.4763C54.992 43.4132 54.8487 42.967 54.8487 42.4847C54.8487 42.0023 54.7341 41.6075 54.5941 41.6075C54.4541 41.6075 54.3395 42.0732 54.3395 42.6423ZM60.8076 42.5209C60.4855 43.2055 60.4506 43.5079 60.6683 43.7274C60.8863 43.9471 60.9591 43.9433 60.9591 43.7125C60.9591 43.5431 61.1653 43.4044 61.4174 43.4044C61.6694 43.4044 62.0131 43.5431 62.1812 43.7125C62.3492 43.8819 62.4867 43.9404 62.4867 43.8426C62.4867 43.4756 61.5953 41.6075 61.4202 41.6075C61.3198 41.6075 61.0441 42.0185 60.8076 42.5209ZM72.0767 41.7787C71.8114 42.046 71.8776 43.6126 72.1615 43.7895C72.317 43.8865 72.4161 43.4928 72.4161 42.7778C72.4161 41.5878 72.3779 41.4751 72.0767 41.7787ZM77.5124 42.238C77.1852 43.1056 77.1839 43.5875 77.508 43.7895C77.6578 43.8827 77.7654 43.5983 77.7695 43.0987L77.7764 42.2493L78.4979 43.1264C79.25 44.0408 79.565 43.8822 79.3409 42.7019C79.2358 42.1463 79.2062 42.1374 78.8854 42.5637C78.5835 42.965 78.5417 42.9696 78.5346 42.6015C78.53 42.3717 78.3564 42.0416 78.1489 41.8678C77.8355 41.6055 77.727 41.6686 77.5124 42.238ZM27.0668 42.7627C26.915 43.7887 26.9698 44.1319 27.2414 43.858C27.3209 43.778 27.3481 43.2679 27.3023 42.7242L27.2185 41.7359L27.0668 42.7627ZM53.5757 42.7627C53.5757 43.2761 53.4484 43.4044 52.9392 43.4044C52.43 43.4044 52.3027 43.2761 52.3027 42.7627C52.3027 42.2493 52.43 42.1209 52.9392 42.1209C53.4484 42.1209 53.5757 42.2493 53.5757 42.7627ZM25.5397 42.9098C25.1535 43.1506 24.7364 42.9552 24.9373 42.6279C25.0139 42.5027 25.2545 42.4688 25.472 42.553C25.7805 42.6723 25.7953 42.7504 25.5397 42.9098ZM61.7229 42.891C61.7229 43.0322 61.6152 43.1477 61.4833 43.1477C61.3514 43.1477 61.1729 43.0322 61.0864 42.891C60.9998 42.7499 61.1078 42.6343 61.3259 42.6343C61.5441 42.6343 61.7229 42.7499 61.7229 42.891ZM79.8076 42.9239C79.803 43.1536 79.9713 43.4853 80.1813 43.6612C80.6709 44.0708 80.676 43.6529 80.1895 43.0042C79.8753 42.5856 79.8145 42.5727 79.8076 42.9239ZM20.6687 43.2484C20.0839 43.6958 20.105 43.9179 20.7323 43.9179C21.0717 43.9179 21.2415 43.7466 21.2415 43.4044C21.2415 42.8045 21.2469 42.8058 20.6687 43.2484ZM17.4225 43.6612C17.4225 43.8023 17.5371 43.9179 17.6771 43.9179C17.8172 43.9179 17.9317 43.8023 17.9317 43.6612C17.9317 43.52 17.8172 43.4044 17.6771 43.4044C17.5371 43.4044 17.4225 43.52 17.4225 43.6612Z" fill="white"/>
</svg>
