<?xml version="1.0" encoding="utf-8"?>
<!-- Generator: Adobe Illustrator 25.0.1, SVG Export Plug-In . SVG Version: 6.00 Build 0)  -->
<svg version="1.1"
	 id="Calque_1" image-rendering="optimizeQuality" shape-rendering="geometricPrecision" text-rendering="geometricPrecision"
	 xmlns="http://www.w3.org/2000/svg" xmlns:xlink="http://www.w3.org/1999/xlink" x="0px" y="0px" viewBox="0 0 3333 3333"
	 style="enable-background:new 0 0 3333 3333;" xml:space="preserve">
<style type="text/css">
	.st0{fill-rule:evenodd;clip-rule:evenodd;fill:#FFFFFF;}
</style>
<path class="st0" d="M1667,0c920,0,1667,746,1667,1667c0,920-746,1667-1667,1667C747,3334,0,2588,0,1667C0,747,746,0,1667,0z
	 M2567,1108c-66,30-137,49-212,58c76-46,135-118,162-204c-71,42-151,73-234,90c-68-72-163-116-270-116c-204,0-369,165-369,369
	c0,29,3,57,9,84c-307-16-579-162-761-386c-33,56-50,120-50,186c0,128,65,241,164,307c-61-2-117-19-167-46v5c0,179,127,328,296,362
	c-31,8-64,13-97,13c-24,0-47-2-70-7c47,147,183,253,345,257c-127,99-285,158-459,158c-30,0-59-2-88-5c164,105,358,166,566,166
	c679,0,1051-563,1051-1051c0-16,0-32-1-48c72-52,135-117,184-191L2567,1108z"/>
</svg>
