<svg width="23" height="22" viewBox="0 0 23 22" fill="none" xmlns="http://www.w3.org/2000/svg">
<path d="M14.3142 4.82261C15.2481 5.00472 16.1064 5.46123 16.7792 6.1337C17.452 6.80617 17.9088 7.66402 18.091 8.59743L14.3142 4.82261ZM14.3142 1C16.2545 1.21544 18.0638 2.08388 19.4451 3.46272C20.8264 4.84157 21.6976 6.64887 21.9156 8.58788L14.3142 1ZM20.9594 16.214V19.0809C20.9605 19.3471 20.906 19.6105 20.7993 19.8544C20.6926 20.0983 20.5361 20.3172 20.3399 20.4971C20.1437 20.677 19.912 20.814 19.6598 20.8993C19.4075 20.9845 19.1402 21.0162 18.875 20.9922C15.9328 20.6727 13.1065 19.6678 10.6234 18.0584C8.31319 16.5911 6.35452 14.6335 4.88651 12.3245C3.27059 9.83138 2.26497 6.99289 1.95112 4.03897C1.92723 3.7747 1.95865 3.50836 2.04339 3.25689C2.12813 3.00543 2.26433 2.77435 2.44331 2.57838C2.6223 2.3824 2.84016 2.22582 3.083 2.11861C3.32585 2.0114 3.58838 1.9559 3.85386 1.95565H6.72232C7.18635 1.95109 7.6362 2.11532 7.98804 2.41774C8.33987 2.72016 8.56968 3.14013 8.63462 3.59937C8.7557 4.51686 8.98023 5.41772 9.30393 6.28476C9.43258 6.62681 9.46042 6.99855 9.38416 7.35593C9.3079 7.71331 9.13074 8.04135 8.87366 8.30118L7.65935 9.51486C9.02049 11.9074 11.0025 13.8883 13.3963 15.2488L14.6106 14.0351C14.8705 13.7782 15.1988 13.6011 15.5563 13.5249C15.9139 13.4486 16.2858 13.4765 16.6281 13.6051C17.4955 13.9286 18.3969 14.153 19.3148 14.274C19.7793 14.3395 20.2035 14.5733 20.5067 14.931C20.8099 15.2887 20.9711 15.7453 20.9594 16.214Z" stroke="white" stroke-width="2" stroke-linecap="round" stroke-linejoin="round"/>
</svg>
