<svg width="37" height="38" viewBox="0 0 37 38" fill="none" xmlns="http://www.w3.org/2000/svg">
<path d="M22.2452 7.8807C23.835 8.2085 25.2962 9.03021 26.4415 10.2407C27.5869 11.4511 28.3645 12.9952 28.6747 14.6754L22.2452 7.8807ZM22.2452 1C25.5483 1.38779 28.6284 2.95098 30.9799 5.4329C33.3314 7.91482 34.8144 11.168 35.1855 14.6582L22.2452 1ZM33.5578 28.3852V33.5457C33.5597 34.0248 33.4668 34.499 33.2852 34.9379C33.1036 35.3769 32.8372 35.7709 32.5032 36.0948C32.1691 36.4186 31.7748 36.6652 31.3453 36.8187C30.9159 36.9722 30.4609 37.0292 30.0094 36.986C25.0006 36.4109 20.1894 34.6021 15.9622 31.7051C12.0293 29.0641 8.69496 25.5403 6.19586 21.3841C3.44498 16.8965 1.73305 11.7872 1.19876 6.47015C1.15808 5.99447 1.21158 5.51504 1.35583 5.0624C1.50009 4.60977 1.73195 4.19383 2.03665 3.84108C2.34135 3.48832 2.71222 3.20648 3.12564 3.0135C3.53906 2.82052 3.98597 2.72062 4.43792 2.72017H9.32108C10.111 2.71196 10.8768 3.00758 11.4758 3.55193C12.0747 4.09629 12.466 4.85224 12.5765 5.67887C12.7826 7.33035 13.1649 8.95189 13.7159 10.5126C13.9349 11.1283 13.9823 11.7974 13.8525 12.4407C13.7227 13.084 13.4211 13.6744 12.9834 14.1421L10.9162 16.3267C13.2334 20.6333 16.6075 24.199 20.6826 26.6478L22.7498 24.4632C23.1923 24.0007 23.7511 23.682 24.3598 23.5448C24.9685 23.4076 25.6017 23.4577 26.1843 23.6891C27.661 24.2715 29.1954 24.6754 30.7582 24.8932C31.5488 25.0111 32.271 25.432 32.7872 26.0758C33.3034 26.7197 33.5776 27.5416 33.5578 28.3852Z" stroke="#FFC700" stroke-width="2" stroke-linecap="round" stroke-linejoin="round"/>
</svg>
