<svg width="1438" height="250" viewBox="0 0 1438 250" fill="none" xmlns="http://www.w3.org/2000/svg">
<path fill-rule="evenodd" clip-rule="evenodd" d="M0 34.2322L59.9167 22.2451C119.833 10.258 239.667 -13.7162 359.5 10.258C479.333 34.2322 599.167 106.155 719 118.142C838.833 130.129 958.667 82.1806 1078.5 76.1871C1198.33 70.1935 1318.17 106.155 1378.08 124.135L1438 142.116V250H1378.08C1318.17 250 1198.33 250 1078.5 250C958.667 250 838.833 250 719 250C599.167 250 479.333 250 359.5 250C239.667 250 119.833 250 59.9167 250H0V34.2322Z" fill="#0099FF"/>
</svg>
